<svg width="20" height="20" viewBox="0 0 20 20" fill="none" xmlns="http://www.w3.org/2000/svg">
<path fill-rule="evenodd" clip-rule="evenodd" d="M14.4458 11.6002C15.0525 11.6002 15.5617 12.1009 15.469 12.7001C14.9247 16.225 11.9072 18.8421 8.26775 18.8421C4.24119 18.8421 0.977539 15.5785 0.977539 11.5529C0.977539 8.23622 3.49721 5.14673 6.33398 4.44819C6.94355 4.29769 7.56826 4.72647 7.56826 5.35402C7.56826 9.60585 7.71119 10.7057 8.51858 11.3039C9.32598 11.9021 10.2754 11.6002 14.4458 11.6002Z" stroke="#9894A9" stroke-width="1.5" stroke-linecap="round" stroke-linejoin="round"/>
<path fill-rule="evenodd" clip-rule="evenodd" d="M18.4143 8.06022C18.4626 5.32852 15.1071 0.925241 11.0181 1.00096C10.7 1.00664 10.4454 1.27167 10.4312 1.58876C10.3281 3.83489 10.4672 6.74548 10.5448 8.06495C10.5685 8.47575 10.8912 8.79852 11.3011 8.82218C12.6575 8.8998 15.6741 9.00581 17.888 8.67074C18.189 8.6253 18.4096 8.36406 18.4143 8.06022Z" stroke="#9894A9" stroke-width="1.5" stroke-linecap="round" stroke-linejoin="round"/>
</svg>
