<svg width="56" height="56" viewBox="0 0 56 56" fill="none" xmlns="http://www.w3.org/2000/svg">
<rect x="0.736842" y="0.736842" width="54.5263" height="54.5263" rx="14" fill="#4B33D9" stroke="#4B33D9" stroke-width="1.47368"/>
<path fill-rule="evenodd" clip-rule="evenodd" d="M24.0102 18H32.3912C35.4802 18 37.2002 19.78 37.2002 22.83V33.16C37.2002 36.26 35.4802 38 32.3912 38H24.0102C20.9702 38 19.2002 36.26 19.2002 33.16V22.83C19.2002 19.78 20.9702 18 24.0102 18ZM24.2802 22.6584V22.6484H27.2692C27.7002 22.6484 28.0502 22.9984 28.0502 23.4274C28.0502 23.8684 27.7002 24.2184 27.2692 24.2184H24.2802C23.8492 24.2184 23.5002 23.8684 23.5002 23.4384C23.5002 23.0084 23.8492 22.6584 24.2802 22.6584ZM24.2802 28.7358H32.1202C32.5502 28.7358 32.9002 28.3858 32.9002 27.9558C32.9002 27.5258 32.5502 27.1748 32.1202 27.1748H24.2802C23.8492 27.1748 23.5002 27.5258 23.5002 27.9558C23.5002 28.3858 23.8492 28.7358 24.2802 28.7358ZM24.2801 33.3094H32.1201C32.5191 33.2694 32.8201 32.9284 32.8201 32.5294C32.8201 32.1194 32.5191 31.7794 32.1201 31.7394H24.2801C23.9801 31.7094 23.6901 31.8494 23.5301 32.1094C23.3701 32.3594 23.3701 32.6894 23.5301 32.9494C23.6901 33.1994 23.9801 33.3494 24.2801 33.3094Z" fill="#FFAB2E"/>
</svg>
