<svg width="116" height="35" viewBox="0 0 116 35" fill="none" xmlns="http://www.w3.org/2000/svg">
<path fill-rule="evenodd" clip-rule="evenodd" d="M71.8148 27.0806C65.1374 32.0024 55.4589 34.6284 47.1258 34.6284C35.4416 34.6284 24.9227 30.3068 16.9648 23.1192C16.3396 22.554 16.8998 21.7837 17.6501 22.2239C26.2382 27.2207 36.8571 30.2268 47.8261 30.2268C55.2238 30.2268 63.3617 28.6962 70.8445 25.5201C71.9749 25.0399 72.9202 26.2603 71.8148 27.0806Z" fill="#FF9900"/>
<path fill-rule="evenodd" clip-rule="evenodd" d="M74.5909 23.9045C73.7406 22.8141 68.9489 23.3893 66.7981 23.6444C66.1429 23.7244 66.0428 23.1542 66.633 22.7441C70.4494 20.0581 76.7117 20.8334 77.4419 21.7337C78.1722 22.639 77.2519 28.9163 73.6656 31.9124C73.1154 32.3726 72.5902 32.1275 72.8353 31.5173C73.6406 29.5065 75.4462 24.9999 74.5909 23.9045Z" fill="#FF9900"/>
<path fill-rule="evenodd" clip-rule="evenodd" d="M66.9466 3.78138V1.17043C66.9466 0.775283 67.2467 0.510187 67.6068 0.510187H79.2961C79.6712 0.510187 79.9713 0.780285 79.9713 1.17043V3.40624C79.9663 3.78138 79.6512 4.27155 79.091 5.04684L73.0338 13.695C75.2846 13.64 77.6605 13.9751 79.7012 15.1255C80.1614 15.3856 80.2865 15.7657 80.3215 16.1409V18.9269C80.3215 19.307 79.9013 19.7522 79.4612 19.5221C75.8648 17.6364 71.0881 17.4313 67.1117 19.5421C66.7065 19.7622 66.2814 19.322 66.2814 18.9419V16.2959C66.2814 15.8708 66.2864 15.1455 66.7115 14.5003L73.7291 4.43661H67.6218C67.2467 4.43661 66.9466 4.17152 66.9466 3.78138Z" fill="black"/>
<path fill-rule="evenodd" clip-rule="evenodd" d="M24.306 20.0723H20.7498C20.4096 20.0473 20.1395 19.7922 20.1145 19.4671V1.21548C20.1145 0.850349 20.4196 0.560242 20.7998 0.560242H24.116C24.4611 0.575237 24.7362 0.840342 24.7612 1.17046V3.55633H24.8262C25.6916 1.25049 27.3171 0.1751 29.5079 0.1751C31.7337 0.1751 33.1243 1.25049 34.1246 3.55633C34.9849 1.25049 36.9406 0.1751 39.0364 0.1751C40.527 0.1751 42.1575 0.790324 43.1529 2.17083C44.2783 3.70638 44.0482 5.93719 44.0482 7.89291L44.0432 19.4121C44.0432 19.7772 43.7381 20.0723 43.358 20.0723H39.8067C39.4516 20.0473 39.1665 19.7622 39.1665 19.4121V9.73858C39.1665 8.9683 39.2365 7.0476 39.0664 6.31733C38.8013 5.09189 38.006 4.74676 36.9757 4.74676C36.1153 4.74676 35.215 5.32197 34.8499 6.24231C34.4848 7.16264 34.5198 8.7032 34.5198 9.73858V19.4121C34.5198 19.7772 34.2147 20.0723 33.8345 20.0723H30.2832C29.9231 20.0473 29.643 19.7622 29.643 19.4121L29.638 9.73858C29.638 7.70284 29.9731 4.70675 27.4472 4.70675C24.8913 4.70675 24.9913 7.62781 24.9913 9.73858V19.4121C24.9913 19.7772 24.6862 20.0723 24.306 20.0723Z" fill="black"/>
<path fill-rule="evenodd" clip-rule="evenodd" d="M90.0349 0.1751C95.3118 0.1751 98.1678 4.70675 98.1678 10.4688C98.1678 16.0359 95.0117 20.4525 90.0349 20.4525C84.853 20.4525 82.032 15.9208 82.032 10.2738C82.032 4.5917 84.888 0.1751 90.0349 0.1751ZM90.0649 3.90146C87.4439 3.90146 87.2789 7.47275 87.2789 9.69856C87.2789 11.9294 87.2439 16.6911 90.0349 16.6911C92.7909 16.6911 92.9209 12.8497 92.9209 10.5089C92.9209 8.9683 92.8559 7.12763 92.3907 5.6671C91.9906 4.39664 91.1953 3.90146 90.0649 3.90146Z" fill="black"/>
<path fill-rule="evenodd" clip-rule="evenodd" d="M105.01 20.0723H101.469C101.114 20.0473 100.829 19.7622 100.829 19.4121L100.824 1.15546C100.854 0.820335 101.149 0.560242 101.509 0.560242H104.805C105.115 0.575237 105.371 0.785324 105.441 1.07043V3.86144H105.506C106.501 1.36553 107.897 0.1751 110.352 0.1751C111.948 0.1751 113.504 0.750311 114.504 2.32588C115.434 3.78641 115.434 6.24231 115.434 8.00795V19.4971C115.394 19.8172 115.099 20.0723 114.749 20.0723H111.183C110.858 20.0473 110.587 19.8072 110.552 19.4971V9.58352C110.552 7.5878 110.783 4.66673 108.327 4.66673C107.461 4.66673 106.666 5.24695 106.271 6.12726C105.771 7.24267 105.706 8.35308 105.706 9.58352V19.4121C105.701 19.7772 105.391 20.0723 105.01 20.0723Z" fill="black"/>
<path fill-rule="evenodd" clip-rule="evenodd" d="M57.6282 11.3541C57.6282 12.7396 57.6632 13.8951 56.963 15.1255C56.3978 16.1259 55.4975 16.7411 54.5021 16.7411C53.1366 16.7411 52.3363 15.7007 52.3363 14.1652C52.3363 11.1341 55.0523 10.5839 57.6282 10.5839V11.3541ZM61.2145 20.0223C60.9795 20.2324 60.6393 20.2474 60.3742 20.1073C59.1938 19.127 58.9787 18.6718 58.3335 17.7365C56.3828 19.7272 54.9973 20.3224 52.4714 20.3224C49.4753 20.3224 47.1494 18.4767 47.1494 14.7804C47.1494 11.8943 48.71 9.92862 50.9408 8.96827C52.8715 8.11795 55.5675 7.9679 57.6282 7.73282V7.27265C57.6282 6.42734 57.6933 5.42698 57.1931 4.69671C56.7629 4.04147 55.9326 3.77137 55.1973 3.77137C53.8419 3.77137 52.6364 4.46663 52.3413 5.90715C52.2813 6.22727 52.0462 6.54238 51.7211 6.55739L48.2748 6.18725C47.9847 6.12223 47.6596 5.88714 47.7446 5.44198C48.5349 1.26046 52.3163 0 55.6975 0C57.4282 0 59.689 0.460168 61.0545 1.77064C62.7851 3.38623 62.6201 5.54202 62.6201 7.88787V13.4299C62.6201 15.0955 63.3103 15.8258 63.9605 16.7261C64.1856 17.0462 64.2356 17.4313 63.9455 17.6714C63.2203 18.2767 61.9298 19.4021 61.2195 20.0323L61.2145 20.0223Z" fill="black"/>
<path fill-rule="evenodd" clip-rule="evenodd" d="M11.0062 11.3541C11.0062 12.7396 11.0412 13.895 10.3409 15.1255C9.7757 16.1259 8.88038 16.7411 7.88001 16.7411C6.51452 16.7411 5.71923 15.7007 5.71923 14.1651C5.71923 11.134 8.43522 10.5838 11.0062 10.5838V11.3541ZM14.5925 20.0223C14.3574 20.2324 14.0172 20.2474 13.7521 20.1073C12.5717 19.127 12.3616 18.6718 11.7114 17.7365C9.7607 19.7272 8.3802 20.3224 5.84928 20.3224C2.85819 20.3224 0.527344 18.4767 0.527344 14.7804C0.527344 11.8943 2.09291 9.92861 4.31872 8.96826C6.24942 8.11795 8.9454 7.9679 11.0062 7.73281V7.27264C11.0062 6.42734 11.0712 5.42697 10.576 4.69671C10.1408 4.04147 9.31054 3.77137 8.58027 3.77137C7.22478 3.77137 6.01434 4.46662 5.71923 5.90715C5.65921 6.22727 5.42412 6.54238 5.10401 6.55738L1.65275 6.18725C1.36265 6.12223 1.04253 5.88714 1.12256 5.44198C1.91785 1.26046 5.69422 0 9.07545 0C10.8061 0 13.0669 0.460168 14.4324 1.77064C16.163 3.38623 15.998 5.54201 15.998 7.88787V13.4299C15.998 15.0955 16.6882 15.8258 17.3385 16.7261C17.5685 17.0462 17.6186 17.4313 17.3284 17.6714C16.6032 18.2766 15.3127 19.4021 14.6025 20.0323L14.5925 20.0223Z" fill="black"/>
</svg>
