<svg width="21" height="23" viewBox="0 0 21 23" fill="none" xmlns="http://www.w3.org/2000/svg">
<path d="M10.9968 1.02188L10.9965 1.02166L10.2921 21.8026L10.2373 21.9949C10.2375 21.995 10.2377 21.995 10.2378 21.9951C10.3067 22.0146 10.3761 22.0234 10.4443 22.0234C10.5124 22.0234 10.5819 22.0146 10.6507 21.9951C14.6578 20.8658 17.0368 19.1632 18.3995 16.5561C19.7533 13.9661 20.0864 10.5135 20.0864 5.93186C20.0864 5.60686 19.8758 5.32332 19.5689 5.22239C17.9542 4.69104 16.0589 3.89152 14.4383 3.09557C13.6283 2.69772 12.8892 2.3019 12.2896 1.94221C11.6858 1.57996 11.2371 1.26226 10.9968 1.02188ZM10.4442 20.4962C6.98148 19.4866 4.97929 18.0398 3.82319 15.8555C2.66614 13.6693 2.33878 10.7148 2.31286 6.63406C6.04214 5.50843 9.00522 3.73677 10.476 2.53487C12.0592 3.69835 15.6175 5.43193 18.5736 6.46517C18.5492 10.6065 18.2238 13.6035 17.0663 15.8172C15.9107 18.0272 13.9085 19.4856 10.4442 20.4962Z" fill="#FCFBF9" stroke="#FCFBF9" stroke-width="0.4"/>
<path d="M15.251 8.79609L15.2506 8.7957C14.9597 8.50632 14.4911 8.50689 14.1997 8.7953L14.1989 8.79609L9.49946 13.4956L6.88998 10.8861C6.60029 10.5964 6.12973 10.5964 5.84004 10.8861C5.55035 11.1758 5.55035 11.6463 5.84004 11.936L8.97502 15.071L8.97582 15.0718C9.1207 15.2152 9.31063 15.288 9.50052 15.288C9.68939 15.288 9.88011 15.2169 10.026 15.071L15.251 9.84603C15.5407 9.55634 15.5407 9.08578 15.251 8.7961L15.251 8.79609Z" fill="#FCFBF9" stroke="#FCFBF9" stroke-width="0.44"/>
</svg>
