<svg width="116" height="116" viewBox="0 0 116 116" fill="none" xmlns="http://www.w3.org/2000/svg">
<rect x="1.52632" y="1.52632" width="112.947" height="112.947" rx="29" fill="#171923" stroke="#171923" stroke-width="3.05263"/>
<path d="M81.6911 77.6036C56.14 90.3444 40.2827 79.6845 30.132 73.2099C29.5038 72.8019 28.4363 73.3053 29.3625 74.4201C32.7443 78.7163 43.8269 89.0714 58.2929 89.0714C72.7689 89.0714 81.3808 80.7955 82.4581 79.3518C83.5281 77.9203 82.7723 77.1307 81.6908 77.6036H81.6911ZM88.867 73.4514C88.1809 72.5152 84.6948 72.3407 82.5008 72.6231C80.3035 72.8973 77.0053 74.3043 77.292 75.1492C77.4392 75.4657 77.7395 75.3237 79.249 75.1815C80.7626 75.0233 85.0029 74.4626 85.8864 75.6727C86.7741 76.8913 84.534 82.6961 84.1249 83.6322C83.7296 84.5684 84.2759 84.8098 85.0184 84.1863C85.7507 83.563 87.0764 81.9489 87.966 79.6647C88.8495 77.368 89.3886 74.1642 88.867 73.4514Z" fill="#FF9900"/>
<path fill-rule="evenodd" clip-rule="evenodd" d="M63.6154 53.5469C63.6154 56.7949 63.6964 59.5036 62.0753 62.3881C60.7669 64.7335 58.6942 66.1757 56.3785 66.1757C53.2173 66.1757 51.3763 63.7367 51.3763 60.1369C51.3763 53.0308 57.6635 51.741 63.6154 51.741V53.5469ZM71.9174 73.8681C71.3731 74.3605 70.5857 74.3958 69.9722 74.0673C67.2396 71.7692 66.7531 70.7021 65.248 68.5092C60.7322 73.1763 57.5364 74.5716 51.6775 74.5716C44.7533 74.5716 39.3574 70.2446 39.3574 61.5791C39.3574 54.8134 42.9818 50.2049 48.1341 47.9537C52.6038 45.96 58.8448 45.6083 63.6154 45.0573V43.9784C63.6154 41.9966 63.7657 39.6515 62.6196 37.9396C61.6121 36.4034 59.69 35.7702 57.9994 35.7702C54.8616 35.7702 52.0595 37.4 51.3763 40.7771C51.2372 41.5278 50.6932 42.2666 49.9522 42.3016L41.9626 41.4341C41.2912 41.2813 40.5502 40.7304 40.7354 39.6866C42.5764 29.8839 51.3182 26.9287 59.1455 26.9287C63.1519 26.9287 68.3855 28.0076 71.5466 31.0799C75.553 34.8673 75.1708 39.9212 75.1708 45.4207V58.4131C75.1708 62.3179 76.7687 64.0298 78.2739 66.1406C78.8065 66.891 78.9224 67.7942 78.2507 68.3567C76.5718 69.7755 73.5844 72.414 71.9403 73.8916L71.9171 73.8681" fill="#FCFBF9"/>
</svg>
