<svg width="312" height="113" viewBox="0 0 312 113" fill="none" xmlns="http://www.w3.org/2000/svg">
<path d="M0 0H312V113H0V0Z" fill="#4B33D9"/>
<path d="M50.0147 64.5314V45.6484H54.4364V64.5314H50.0147Z" fill="#FCFBF9"/>
<path d="M62.7172 53.4672V64.5314H58.2954V45.6484H62.5218V48.857H62.7416C63.1732 47.7998 63.8613 46.9597 64.8059 46.3368C65.7587 45.714 66.9354 45.4025 68.336 45.4025C69.6308 45.4025 70.7586 45.6812 71.7195 46.2385C72.6886 46.7958 73.4377 47.6031 73.9671 48.6603C74.5045 49.7176 74.7692 51.0002 74.761 52.5083V64.5314H70.3393V53.1967C70.3393 51.9345 70.0135 50.947 69.3621 50.2339C68.7188 49.5209 67.8271 49.1644 66.687 49.1644C65.9134 49.1644 65.2253 49.3365 64.6227 49.6807C64.0283 50.0167 63.56 50.5044 63.218 51.1437C62.8841 51.7829 62.7172 52.5574 62.7172 53.4672Z" fill="#FCFBF9"/>
<path d="M79.814 41.1243H84.2358V58.8518C84.2358 59.4501 84.3254 59.909 84.5045 60.2287C84.6918 60.5401 84.9361 60.7532 85.2374 60.8679C85.5387 60.9827 85.8726 61.04 86.239 61.04C86.5159 61.04 86.7683 61.0195 86.9964 60.9786C87.2325 60.9376 87.4117 60.9007 87.5338 60.8679L88.2789 64.347C88.0428 64.429 87.7048 64.5191 87.2651 64.6175C86.8335 64.7158 86.3042 64.7732 85.6772 64.7896C84.5697 64.8224 83.5721 64.6544 82.6845 64.2856C81.7969 63.9086 81.0925 63.3267 80.5714 62.5399C80.0583 61.7531 79.8059 60.7696 79.814 59.5894V41.1243Z" fill="#FCFBF9"/>
<path d="M113.112 64.5314V45.6484H117.399V48.7956H117.594C117.936 47.7055 118.523 46.8655 119.353 46.2754C120.192 45.6771 121.149 45.3779 122.224 45.3779C122.468 45.3779 122.741 45.3902 123.042 45.4148C123.352 45.4312 123.608 45.4599 123.812 45.5009V49.5947C123.624 49.5291 123.327 49.4717 122.92 49.4225C122.521 49.3652 122.134 49.3365 121.76 49.3365C120.953 49.3365 120.229 49.5127 119.585 49.8651C118.95 50.2093 118.449 50.6888 118.083 51.3035C117.716 51.9182 117.533 52.6271 117.533 53.4303V64.5314H113.112Z" fill="#FCFBF9"/>
<path d="M126.061 64.5314V45.6484H130.483V64.5314H126.061Z" fill="#FCFBF9"/>
<path d="M54.4071 41.2178C54.4071 42.4426 53.4205 43.4355 52.2036 43.4355C50.9866 43.4355 50 42.4426 50 41.2178C50 39.9929 50.9866 39 52.2036 39C53.4205 39 54.4071 39.9929 54.4071 41.2178Z" fill="#FCFBF9"/>
<path d="M130.51 41.2178C130.51 42.4426 129.524 43.4355 128.307 43.4355C127.09 43.4355 126.103 42.4426 126.103 41.2178C126.103 39.9929 127.09 39 128.307 39C129.524 39 130.51 39.9929 130.51 41.2178Z" fill="#FCFBF9"/>
<path d="M77.0876 45.7074H87.9441V49.0611H77.0876V45.7074Z" fill="#FCFBF9"/>
<path d="M90.2578 54.7655C90.3078 52.2029 91.3514 49.7622 93.1644 47.9677C94.9775 46.1732 97.4154 45.168 99.9546 45.168C102.494 45.168 104.932 46.1732 106.745 47.9677C108.558 49.7622 109.601 52.2029 109.651 54.7655C109.651 60.0967 105.283 64.3851 99.9076 64.3851C98.6472 64.3971 97.3968 64.1574 96.2286 63.6797C95.0603 63.202 93.9971 62.4958 93.1002 61.6018C92.2034 60.7077 91.4905 59.6434 91.0027 58.4702C90.5149 57.2969 90.2617 56.0379 90.2578 54.7655ZM104.979 54.7352C104.997 54.0575 104.881 53.383 104.636 52.7515C104.392 52.12 104.025 51.5444 103.557 51.0585C103.088 50.5726 102.528 50.1864 101.91 49.9227C101.291 49.659 100.626 49.5232 99.9546 49.5232C99.283 49.5232 98.6183 49.659 97.9996 49.9227C97.3809 50.1864 96.8208 50.5726 96.3525 51.0585C95.8842 51.5444 95.517 52.12 95.2728 52.7515C95.0286 53.383 94.9122 54.0575 94.9306 54.7352C94.9122 55.4128 95.0286 56.0873 95.2728 56.7188C95.517 57.3503 95.8842 57.926 96.3525 58.4119C96.8208 58.8977 97.3809 59.2839 97.9996 59.5476C98.6183 59.8113 99.283 59.9472 99.9546 59.9472C100.626 59.9472 101.291 59.8113 101.91 59.5476C102.528 59.2839 103.088 58.8977 103.557 58.4119C104.025 57.926 104.392 57.3503 104.636 56.7188C104.881 56.0873 104.997 55.4128 104.979 54.7352ZM94.4949 72.1126C94.1418 72.3401 93.845 72.3212 93.6272 72.0254L91.8054 69.466C91.5913 69.1702 91.7303 68.8138 92.2298 68.4953C95.3202 66.5137 99.0222 65.7424 102.637 66.3271C106.252 66.9118 109.53 68.8119 111.852 71.669C112.228 72.1316 112.228 72.5145 111.954 72.7269L109.418 74.5772C109.122 74.7934 108.832 74.7137 108.57 74.3876C106.905 72.3373 104.553 70.9736 101.96 70.5544C99.3665 70.1352 96.7108 70.6896 94.4949 72.1126Z" fill="#FFAB2E"/>
</svg>
