<svg width="56" height="56" viewBox="0 0 56 56" fill="none" xmlns="http://www.w3.org/2000/svg">
<rect x="0.736842" y="0.736842" width="54.5263" height="54.5263" rx="14" fill="#171923" stroke="#171923" stroke-width="1.47368"/>
<path d="M39.4371 37.4638C27.1021 43.6145 19.4468 38.4684 14.5465 35.3427C14.2432 35.1457 13.7278 35.3888 14.175 35.9269C15.8076 38.001 21.1578 43 28.1414 43C35.1298 43 39.2873 39.0047 39.8073 38.3078C40.3239 37.6167 39.959 37.2355 39.437 37.4638H39.4371ZM42.9013 35.4593C42.5701 35.0073 40.8871 34.9231 39.828 35.0594C38.7672 35.1918 37.175 35.8711 37.3134 36.2789C37.3844 36.4317 37.5294 36.3632 38.2581 36.2945C38.9888 36.2181 41.0359 35.9475 41.4624 36.5317C41.8909 37.1199 40.8095 39.9222 40.612 40.3742C40.4212 40.8261 40.6849 40.9427 41.0434 40.6417C41.3969 40.3408 42.0369 39.5615 42.4663 38.4588C42.8929 37.3501 43.1531 35.8034 42.9013 35.4593Z" fill="#FF9900"/>
<path fill-rule="evenodd" clip-rule="evenodd" d="M30.7107 25.8501C30.7107 27.4182 30.7499 28.7258 29.9673 30.1183C29.3356 31.2506 28.335 31.9468 27.2171 31.9468C25.691 31.9468 24.8022 30.7694 24.8022 29.0315C24.8022 25.601 27.8374 24.9784 30.7107 24.9784V25.8501ZM34.7186 35.6604C34.4559 35.8981 34.0757 35.9152 33.7795 35.7566C32.4603 34.6471 32.2255 34.132 31.4989 33.0734C29.3189 35.3264 27.776 36 24.9476 36C21.6049 36 19 33.9111 19 29.7278C19 26.4616 20.7497 24.2368 23.237 23.15C25.3948 22.1875 28.4077 22.0177 30.7107 21.7517V21.2309C30.7107 20.2742 30.7833 19.142 30.23 18.3156C29.7436 17.574 28.8157 17.2683 27.9996 17.2683C26.4848 17.2683 25.132 18.0551 24.8022 19.6854C24.7351 20.0478 24.4724 20.4045 24.1147 20.4214L20.2577 20.0026C19.9335 19.9289 19.5758 19.6629 19.6652 19.159C20.554 14.4266 24.7742 13 28.5529 13C30.487 13 33.0135 13.5208 34.5396 15.004C36.4737 16.8324 36.2892 19.2722 36.2892 21.9272V28.1994C36.2892 30.0844 37.0606 30.9109 37.7873 31.9299C38.0444 32.2922 38.1003 32.7282 37.7761 32.9997C36.9655 33.6847 35.5234 34.9584 34.7297 35.6717L34.7185 35.6604" fill="#FCFBF9"/>
</svg>
