<svg width="56" height="56" viewBox="0 0 56 56" fill="none" xmlns="http://www.w3.org/2000/svg">
<rect x="0.736842" y="0.736842" width="54.5263" height="54.5263" rx="14" fill="#4B33D9" stroke="#4B33D9" stroke-width="1.47368"/>
<path fill-rule="evenodd" clip-rule="evenodd" d="M24.0094 18H32.3908C35.4799 18 37.2 19.7801 37.2 22.8302V33.1607C37.2 36.2608 35.4799 38.0009 32.3908 38.0009H24.0094C20.9693 38.0009 19.1992 36.2608 19.1992 33.1607V22.8302C19.1992 19.7801 20.9693 18 24.0094 18ZM24.2794 22.6585V22.6485H27.2686C27.6996 22.6485 28.0496 22.9985 28.0496 23.4275C28.0496 23.8685 27.6996 24.2186 27.2686 24.2186H24.2794C23.8484 24.2186 23.4994 23.8685 23.4994 23.4385C23.4994 23.0085 23.8484 22.6585 24.2794 22.6585ZM24.2794 28.7361H32.1198C32.5498 28.7361 32.8998 28.3861 32.8998 27.9561C32.8998 27.5261 32.5498 27.175 32.1198 27.175H24.2794C23.8484 27.175 23.4994 27.5261 23.4994 27.9561C23.4994 28.3861 23.8484 28.7361 24.2794 28.7361ZM24.2794 33.3116H32.1198C32.5188 33.2716 32.8198 32.9306 32.8198 32.5316C32.8198 32.1216 32.5188 31.7816 32.1198 31.7416H24.2794C23.9794 31.7116 23.6894 31.8516 23.5294 32.1116C23.3694 32.3616 23.3694 32.6916 23.5294 32.9516C23.6894 33.2016 23.9794 33.3516 24.2794 33.3116Z" fill="#FFAB2E"/>
</svg>
