<svg width="105" height="43" viewBox="0 0 105 43" fill="none" xmlns="http://www.w3.org/2000/svg">
<path d="M13.5683 9.61133C6.16726 9.61133 0 12.6778 0 21.9292C0 29.2583 4.14704 33.8737 13.7594 33.8737C25.0736 33.8737 25.7988 26.595 25.7988 26.595H20.3166C20.3166 26.595 19.1411 30.5143 13.425 30.5143C8.76927 30.5143 5.42072 27.4428 5.42072 23.1376H26.3722V20.4361C26.3722 16.1769 23.6036 9.61133 13.5683 9.61133ZM13.3772 13.0641C17.8089 13.0641 20.8302 15.7155 20.8302 19.6895H5.54197C5.54197 15.4706 9.4855 13.0641 13.3772 13.0641Z" fill="#E53238"/>
<path d="M26.4895 0.117188V29.9971C26.4895 31.6931 26.3711 34.0746 26.3711 34.0746H31.5964C31.5964 34.0746 31.7839 32.3642 31.7839 30.801C31.7839 30.801 34.3655 34.9284 41.3851 34.9284C48.7771 34.9284 53.7981 29.6839 53.7981 22.17C53.7981 15.1799 49.1861 9.55794 41.3971 9.55794C34.1032 9.55794 31.8367 13.5831 31.8367 13.5831V0.117188H26.4895ZM40.0484 13.2537C45.0681 13.2537 48.26 17.0609 48.26 22.17C48.26 27.6486 44.5734 31.2326 40.0842 31.2326C34.7266 31.2326 31.8367 26.9578 31.8367 22.2188C31.8367 17.803 34.4299 13.2537 40.0484 13.2537Z" fill="#0064D2"/>
<path d="M66.3637 9.61133C55.189 9.61133 54.4723 15.7901 54.4723 16.7774H60.0344C60.0344 16.7774 60.3261 13.1702 65.9801 13.1702C69.6542 13.1702 72.5012 14.8683 72.5012 18.1331V19.2952H65.9801C57.3229 19.2952 52.7461 21.8526 52.7461 27.0423C52.7461 32.1497 56.9749 34.9286 62.6896 34.9286C70.4778 34.9286 72.9867 30.583 72.9867 30.583C72.9867 32.3114 73.1187 34.0147 73.1187 34.0147H78.0634C78.0634 34.0147 77.8716 31.9034 77.8716 30.5527V18.8776C77.8716 11.2224 71.7568 9.61133 66.3637 9.61133ZM72.5012 22.7814V24.3308C72.5012 26.3517 71.2663 31.3758 63.9962 31.3758C60.0151 31.3758 58.3082 29.3695 58.3082 27.0423C58.3082 22.8087 64.0564 22.7814 72.5012 22.7814Z" fill="#F5AF02"/>
<path d="M74.8984 10.665H81.0869L89.9683 28.4409L98.8293 10.665H104.435L88.295 42.3116H82.4147L87.0722 33.4897L74.8984 10.665Z" fill="#86B817"/>
</svg>
