<svg width="38" height="38" viewBox="0 0 38 38" fill="none" xmlns="http://www.w3.org/2000/svg">
<rect width="38" height="38" rx="10" fill="#4B33D9"/>
<path d="M24.068 13.8816H23.788L21.422 11.1629C21.233 10.9457 20.925 10.9457 20.729 11.1629C20.54 11.3801 20.54 11.734 20.729 11.9592L22.402 13.8816H15.598L17.271 11.9592C17.46 11.742 17.46 11.3881 17.271 11.1629C17.082 10.9457 16.774 10.9457 16.578 11.1629L14.219 13.8816H13.939C13.309 13.8816 12 13.8816 12 15.9408C12 16.7211 12.14 17.2359 12.434 17.5737C12.602 17.7748 12.805 17.8793 13.022 17.9357C13.225 17.992 13.442 18 13.652 18H24.348C24.565 18 24.768 17.9839 24.964 17.9357C25.552 17.7748 26 17.2922 26 15.9408C26 13.8816 24.691 13.8816 24.068 13.8816Z" fill="#FFAB2E"/>
<path d="M24.2593 19H13.7441C13.2844 19 12.9358 19.44 13.01 19.928L13.6329 24.04C13.8405 25.416 14.3967 27 16.8661 27H21.0262C23.5252 27 23.9701 25.648 24.2371 24.136L24.9861 19.952C25.0751 19.456 24.7265 19 24.2593 19ZM18.0006 24.16C18.0006 24.472 17.7708 24.72 17.489 24.72C17.1998 24.72 16.9699 24.472 16.9699 24.16V21.52C16.9699 21.216 17.1998 20.96 17.489 20.96C17.7708 20.96 18.0006 21.216 18.0006 21.52V24.16ZM21.1745 24.16C21.1745 24.472 20.9446 24.72 20.6554 24.72C20.3736 24.72 20.1363 24.472 20.1363 24.16V21.52C20.1363 21.216 20.3736 20.96 20.6554 20.96C20.9446 20.96 21.1745 21.216 21.1745 21.52V24.16Z" fill="#FFAB2E"/>
</svg>
