<svg width="393" height="113" viewBox="0 0 393 113" fill="none" xmlns="http://www.w3.org/2000/svg">
<path d="M0 0H393V113H0V0Z" fill="#171923"/>
<path d="M16.0147 64.5314V45.6484H20.4364V64.5314H16.0147Z" fill="#FCFBF9"/>
<path d="M28.7172 53.4672V64.5314H24.2954V45.6484H28.5218V48.857H28.7416C29.1732 47.7998 29.8613 46.9597 30.8059 46.3368C31.7587 45.714 32.9354 45.4025 34.336 45.4025C35.6308 45.4025 36.7586 45.6812 37.7195 46.2385C38.6886 46.7958 39.4377 47.6031 39.9671 48.6603C40.5045 49.7176 40.7692 51.0002 40.761 52.5083V64.5314H36.3393V53.1967C36.3393 51.9345 36.0135 50.947 35.3621 50.2339C34.7188 49.5209 33.8271 49.1644 32.687 49.1644C31.9134 49.1644 31.2253 49.3365 30.6227 49.6807C30.0283 50.0167 29.56 50.5044 29.218 51.1437C28.8841 51.7829 28.7172 52.5574 28.7172 53.4672Z" fill="#FCFBF9"/>
<path d="M45.814 41.1243H50.2358V58.8518C50.2358 59.4501 50.3254 59.909 50.5045 60.2287C50.6918 60.5401 50.9361 60.7532 51.2374 60.8679C51.5387 60.9827 51.8726 61.04 52.239 61.04C52.5159 61.04 52.7683 61.0195 52.9964 60.9786C53.2325 60.9376 53.4117 60.9007 53.5338 60.8679L54.2789 64.347C54.0428 64.429 53.7048 64.5191 53.2651 64.6175C52.8335 64.7158 52.3042 64.7732 51.6772 64.7896C50.5697 64.8224 49.5721 64.6544 48.6845 64.2856C47.7969 63.9086 47.0925 63.3267 46.5714 62.5399C46.0583 61.7531 45.8059 60.7696 45.814 59.5894V41.1243Z" fill="#FCFBF9"/>
<path d="M79.1115 64.5314V45.6484H83.3989V48.7956H83.5943C83.9364 47.7055 84.5227 46.8655 85.3533 46.2754C86.192 45.6771 87.1488 45.3779 88.2238 45.3779C88.468 45.3779 88.7409 45.3902 89.0422 45.4148C89.3516 45.4312 89.6081 45.4599 89.8117 45.5009V49.5947C89.6244 49.5291 89.3272 49.4717 88.92 49.4225C88.521 49.3652 88.1342 49.3365 87.7596 49.3365C86.9534 49.3365 86.2287 49.5127 85.5854 49.8651C84.9502 50.2093 84.4494 50.6888 84.0829 51.3035C83.7165 51.9182 83.5333 52.6271 83.5333 53.4303V64.5314H79.1115Z" fill="#FCFBF9"/>
<path d="M92.0614 64.5314V45.6484H96.4832V64.5314H92.0614Z" fill="#FCFBF9"/>
<path d="M20.4071 41.2178C20.4071 42.4426 19.4205 43.4355 18.2036 43.4355C16.9866 43.4355 16 42.4426 16 41.2178C16 39.9929 16.9866 39 18.2036 39C19.4205 39 20.4071 39.9929 20.4071 41.2178Z" fill="#FCFBF9"/>
<path d="M96.5103 41.2178C96.5103 42.4426 95.5237 43.4355 94.3067 43.4355C93.0898 43.4355 92.1032 42.4426 92.1032 41.2178C92.1032 39.9929 93.0898 39 94.3067 39C95.5237 39 96.5103 39.9929 96.5103 41.2178Z" fill="#FCFBF9"/>
<path d="M43.0876 45.7074H53.9441V49.0611H43.0876V45.7074Z" fill="#FCFBF9"/>
<path d="M56.2578 54.7655C56.3078 52.2029 57.3514 49.7622 59.1644 47.9677C60.9775 46.1732 63.4154 45.168 65.9546 45.168C68.4938 45.168 70.9317 46.1732 72.7447 47.9677C74.5578 49.7622 75.6014 52.2029 75.6513 54.7655C75.6513 60.0967 71.2828 64.3851 65.9076 64.3851C64.6472 64.3971 63.3968 64.1574 62.2286 63.6797C61.0603 63.202 59.9971 62.4958 59.1002 61.6018C58.2034 60.7077 57.4905 59.6434 57.0027 58.4702C56.5149 57.2969 56.2617 56.0379 56.2578 54.7655ZM70.9786 54.7352C70.9969 54.0575 70.8806 53.383 70.6363 52.7515C70.3921 52.12 70.025 51.5444 69.5567 51.0585C69.0883 50.5726 68.5283 50.1864 67.9096 49.9227C67.2909 49.659 66.6261 49.5232 65.9546 49.5232C65.283 49.5232 64.6183 49.659 63.9996 49.9227C63.3809 50.1864 62.8208 50.5726 62.3525 51.0585C61.8842 51.5444 61.517 52.12 61.2728 52.7515C61.0286 53.383 60.9122 54.0575 60.9306 54.7352C60.9122 55.4128 61.0286 56.0873 61.2728 56.7188C61.517 57.3503 61.8842 57.926 62.3525 58.4119C62.8208 58.8977 63.3809 59.2839 63.9996 59.5476C64.6183 59.8113 65.283 59.9472 65.9546 59.9472C66.6261 59.9472 67.2909 59.8113 67.9096 59.5476C68.5283 59.2839 69.0883 58.8977 69.5567 58.4119C70.025 57.926 70.3921 57.3503 70.6363 56.7188C70.8806 56.0873 70.9969 55.4128 70.9786 54.7352ZM60.4949 72.1126C60.1418 72.3401 59.845 72.3212 59.6272 72.0254L57.8054 69.466C57.5913 69.1702 57.7303 68.8138 58.2298 68.4953C61.3202 66.5137 65.0222 65.7424 68.6372 66.3271C72.2522 66.9118 75.5302 68.8119 77.8525 71.669C78.2281 72.1316 78.2281 72.5145 77.9539 72.7269L75.4184 74.5772C75.1217 74.7934 74.8325 74.7137 74.5695 74.3876C72.9046 72.3373 70.5532 70.9736 67.9598 70.5544C65.3665 70.1352 62.7108 70.6896 60.4949 72.1126Z" fill="#FCFBF9"/>
</svg>
