<svg width="38" height="38" viewBox="0 0 38 38" fill="none" xmlns="http://www.w3.org/2000/svg">
<rect width="38" height="38" rx="10" fill="#4B33D9"/>
<path fill-rule="evenodd" clip-rule="evenodd" d="M15.6478 11H22.3526C24.8238 11 26.1998 12.424 26.1998 14.864V23.128C26.1998 25.608 24.8238 27 22.3526 27H15.6478C13.2158 27 11.7998 25.608 11.7998 23.128V14.864C11.7998 12.424 13.2158 11 15.6478 11ZM15.8638 14.7267V14.7188H18.255C18.5998 14.7188 18.8798 14.9987 18.8798 15.3419C18.8798 15.6947 18.5998 15.9748 18.255 15.9748H15.8638C15.519 15.9748 15.2398 15.6947 15.2398 15.3507C15.2398 15.0068 15.519 14.7267 15.8638 14.7267ZM15.8638 19.5894H22.1358C22.4798 19.5894 22.7598 19.3094 22.7598 18.9654C22.7598 18.6214 22.4798 18.3406 22.1358 18.3406H15.8638C15.519 18.3406 15.2398 18.6214 15.2398 18.9654C15.2398 19.3094 15.519 19.5894 15.8638 19.5894ZM15.8637 23.2467H22.1357C22.4549 23.2147 22.6957 22.9419 22.6957 22.6227C22.6957 22.2947 22.4549 22.0227 22.1357 21.9907H15.8637C15.6237 21.9667 15.3917 22.0787 15.2637 22.2867C15.1357 22.4867 15.1357 22.7507 15.2637 22.9587C15.3917 23.1587 15.6237 23.2787 15.8637 23.2467Z" fill="#FFAB2E"/>
</svg>
