<svg width="38" height="38" viewBox="0 0 38 38" fill="none" xmlns="http://www.w3.org/2000/svg">
<rect width="38" height="38" rx="10" fill="#FCFBF9"/>
<mask id="mask0_437_3248" style="mask-type:luminance" maskUnits="userSpaceOnUse" x="11" y="10" width="16" height="16">
<path d="M12 10.85H11.85V11V25.1205V25.2705H12H26H26.15V25.1205V11V10.85H26H12Z" fill="white" stroke="white" stroke-width="0.3"/>
</mask>
<g mask="url(#mask0_437_3248)">
<mask id="path-3-outside-1_437_3248" maskUnits="userSpaceOnUse" x="11" y="10" width="16" height="16" fill="black">
<rect fill="white" x="11" y="10" width="16" height="16"/>
<path fill-rule="evenodd" clip-rule="evenodd" d="M18.9987 12.2227C16.3534 12.2227 14.5096 14.4513 14.5096 16.4511C14.5096 18.1434 14.0729 18.9256 13.6869 19.6158C13.3773 20.1701 13.1328 20.608 13.1328 21.5595C13.2592 23.0946 14.2016 23.9013 18.9987 23.9013C23.7693 23.9013 24.7412 23.0588 24.8668 21.5066C24.8645 20.608 24.6201 20.1701 24.3105 19.6158C23.9245 18.9256 23.4878 18.1434 23.4878 16.4511C23.4878 14.4513 21.644 12.2227 18.9987 12.2227ZM18.9989 25.1205C15.4597 25.1205 12.2611 24.8519 12 21.6099C11.9977 20.2685 12.3785 19.5864 12.7145 18.9857C13.0543 18.3769 13.3745 17.803 13.3745 16.4494C13.3745 13.8179 15.6346 11 18.9989 11C22.3633 11 24.6233 13.8179 24.6233 16.4494C24.6233 17.803 24.9435 18.3769 25.2833 18.9857C25.6194 19.5864 26.0001 20.2685 26.0001 21.5578C25.7359 24.8519 22.5381 25.1205 18.9989 25.1205Z"/>
</mask>
<path fill-rule="evenodd" clip-rule="evenodd" d="M18.9987 12.2227C16.3534 12.2227 14.5096 14.4513 14.5096 16.4511C14.5096 18.1434 14.0729 18.9256 13.6869 19.6158C13.3773 20.1701 13.1328 20.608 13.1328 21.5595C13.2592 23.0946 14.2016 23.9013 18.9987 23.9013C23.7693 23.9013 24.7412 23.0588 24.8668 21.5066C24.8645 20.608 24.6201 20.1701 24.3105 19.6158C23.9245 18.9256 23.4878 18.1434 23.4878 16.4511C23.4878 14.4513 21.644 12.2227 18.9987 12.2227ZM18.9989 25.1205C15.4597 25.1205 12.2611 24.8519 12 21.6099C11.9977 20.2685 12.3785 19.5864 12.7145 18.9857C13.0543 18.3769 13.3745 17.803 13.3745 16.4494C13.3745 13.8179 15.6346 11 18.9989 11C22.3633 11 24.6233 13.8179 24.6233 16.4494C24.6233 17.803 24.9435 18.3769 25.2833 18.9857C25.6194 19.5864 26.0001 20.2685 26.0001 21.5578C25.7359 24.8519 22.5381 25.1205 18.9989 25.1205Z" fill="#9894A9"/>
<path d="M13.6869 19.6158L13.425 19.4694L13.425 19.4695L13.6869 19.6158ZM13.1328 21.5595H12.8328V21.5718L12.8339 21.5841L13.1328 21.5595ZM24.8668 21.5066L25.1658 21.5308L25.1668 21.5184L25.1668 21.5059L24.8668 21.5066ZM24.3105 19.6158L24.5724 19.4695L24.5723 19.4694L24.3105 19.6158ZM12 21.6099L11.7 21.6104L11.7 21.6222L11.701 21.634L12 21.6099ZM12.7145 18.9857L12.9763 19.1322L12.9765 19.1319L12.7145 18.9857ZM25.2833 18.9857L25.0214 19.1319L25.0215 19.1322L25.2833 18.9857ZM26.0001 21.5578L26.2991 21.5818L26.3001 21.5698V21.5578H26.0001ZM18.9987 11.9227C16.1822 11.9227 14.2096 14.2911 14.2096 16.4511H14.8096C14.8096 14.6114 16.5245 12.5227 18.9987 12.5227V11.9227ZM14.2096 16.4511C14.2096 17.2703 14.1041 17.8577 13.9572 18.318C13.8099 18.7797 13.618 19.1244 13.425 19.4694L13.9487 19.7622C14.1418 19.4169 14.3613 19.0255 14.5288 18.5004C14.6968 17.974 14.8096 17.3242 14.8096 16.4511H14.2096ZM13.425 19.4695C13.2719 19.7437 13.1194 20.0151 13.0093 20.3433C12.8978 20.6761 12.8328 21.0562 12.8328 21.5595H13.4328C13.4328 21.1113 13.4902 20.7967 13.5782 20.5341C13.6678 20.2669 13.7923 20.0422 13.9488 19.7621L13.425 19.4695ZM12.8339 21.5841C12.8676 21.9945 12.958 22.3848 13.1733 22.7313C13.3908 23.0815 13.72 23.3618 14.1883 23.5784C15.1047 24.0021 16.5993 24.2013 18.9987 24.2013V23.6013C16.6009 23.6013 15.2258 23.3971 14.4402 23.0338C14.0575 22.8568 13.8276 22.6476 13.6829 22.4147C13.5361 22.1783 13.4612 21.8921 13.4318 21.5349L12.8339 21.5841ZM18.9987 24.2013C21.386 24.2013 22.8819 23.9931 23.8029 23.5572C24.2732 23.3346 24.6042 23.0481 24.8231 22.6931C25.04 22.3414 25.1322 21.9462 25.1658 21.5308L24.5678 21.4824C24.5386 21.8431 24.4622 22.1353 24.3124 22.3781C24.1647 22.6176 23.931 22.8328 23.5463 23.0148C22.7573 23.3882 21.382 23.6013 18.9987 23.6013V24.2013ZM25.1668 21.5059C25.1643 20.5297 24.8895 20.0372 24.5724 19.4695L24.0486 19.7621C24.3506 20.303 24.5647 20.6863 24.5668 21.5074L25.1668 21.5059ZM24.5723 19.4694C24.3794 19.1244 24.1875 18.7797 24.0402 18.318C23.8933 17.8577 23.7878 17.2703 23.7878 16.4511H23.1878C23.1878 17.3242 23.3006 17.974 23.4686 18.5004C23.6361 19.0255 23.8556 19.4169 24.0487 19.7622L24.5723 19.4694ZM23.7878 16.4511C23.7878 14.2911 21.8151 11.9227 18.9987 11.9227V12.5227C21.4728 12.5227 23.1878 14.6114 23.1878 16.4511H23.7878ZM18.9989 24.8205C17.2233 24.8205 15.5915 24.7506 14.3744 24.2996C13.7727 24.0766 13.2881 23.7656 12.9386 23.3366C12.5909 22.9097 12.3602 22.3454 12.299 21.5858L11.701 21.634C11.7704 22.4953 12.0374 23.1803 12.4735 23.7156C12.9078 24.2488 13.493 24.6128 14.1659 24.8622C15.4983 25.356 17.2353 25.4205 18.9989 25.4205V24.8205ZM12.3 21.6094C12.2979 20.3432 12.6505 19.7146 12.9763 19.1322L12.4527 18.8392C12.1064 19.4582 11.6976 20.1938 11.7 21.6104L12.3 21.6094ZM12.9765 19.1319C13.1458 18.8285 13.3253 18.5085 13.4581 18.087C13.5914 17.6638 13.6745 17.1508 13.6745 16.4494H13.0745C13.0745 17.1017 12.9975 17.5523 12.8858 17.9067C12.7736 18.2627 12.623 18.5341 12.4526 18.8395L12.9765 19.1319ZM13.6745 16.4494C13.6745 13.97 15.8135 11.3 18.9989 11.3V10.7C15.4556 10.7 13.0745 13.6658 13.0745 16.4494H13.6745ZM18.9989 11.3C22.1843 11.3 24.3233 13.97 24.3233 16.4494H24.9233C24.9233 13.6658 22.5422 10.7 18.9989 10.7V11.3ZM24.3233 16.4494C24.3233 17.1508 24.4064 17.6638 24.5397 18.087C24.6726 18.5085 24.852 18.8285 25.0214 19.1319L25.5453 18.8395C25.3748 18.5341 25.2242 18.2627 25.112 17.9067C25.0003 17.5523 24.9233 17.1017 24.9233 16.4494H24.3233ZM25.0215 19.1322C25.3486 19.7168 25.7001 20.3449 25.7001 21.5578H26.3001C26.3001 20.1921 25.8901 19.456 25.5451 18.8392L25.0215 19.1322ZM25.701 21.5338C25.639 22.3075 25.4072 22.882 25.0585 23.3163C24.7083 23.7523 24.2235 24.0677 23.6221 24.2936C22.4056 24.7506 20.7747 24.8205 18.9989 24.8205V25.4205C20.7623 25.4205 22.4999 25.3561 23.8331 24.8552C24.5067 24.6022 25.092 24.2328 25.5263 23.692C25.962 23.1494 26.2291 22.4552 26.2991 21.5818L25.701 21.5338Z" fill="#9894A9" mask="url(#path-3-outside-1_437_3248)"/>
</g>
<mask id="path-5-outside-2_437_3248" maskUnits="userSpaceOnUse" x="15.5547" y="25.3477" width="7" height="4" fill="black">
<rect fill="white" x="15.5547" y="25.3477" width="7" height="4"/>
<path fill-rule="evenodd" clip-rule="evenodd" d="M18.9627 28.4991H18.9611C18.1127 28.4983 17.3096 28.0962 16.7003 27.3661C16.4907 27.1162 16.5096 26.7295 16.7427 26.5049C16.9758 26.2786 17.3346 26.299 17.5443 26.5505C17.9363 27.0201 18.4396 27.2781 18.9619 27.2781H18.9627C19.4872 27.2781 19.9928 27.0201 20.3856 26.5497C20.596 26.2998 20.9548 26.2794 21.1871 26.5049C21.4203 26.7304 21.4392 27.117 21.2295 27.3669C20.618 28.097 19.8134 28.4991 18.9627 28.4991Z"/>
</mask>
<path fill-rule="evenodd" clip-rule="evenodd" d="M18.9627 28.4991H18.9611C18.1127 28.4983 17.3096 28.0962 16.7003 27.3661C16.4907 27.1162 16.5096 26.7295 16.7427 26.5049C16.9758 26.2786 17.3346 26.299 17.5443 26.5505C17.9363 27.0201 18.4396 27.2781 18.9619 27.2781H18.9627C19.4872 27.2781 19.9928 27.0201 20.3856 26.5497C20.596 26.2998 20.9548 26.2794 21.1871 26.5049C21.4203 26.7304 21.4392 27.117 21.2295 27.3669C20.618 28.097 19.8134 28.4991 18.9627 28.4991Z" fill="#9894A9"/>
<path d="M18.9611 28.4991L18.9609 28.7991H18.9611V28.4991ZM16.7003 27.3661L16.9307 27.1738L16.9302 27.1732L16.7003 27.3661ZM16.7427 26.5049L16.9509 26.7209L16.9517 26.7202L16.7427 26.5049ZM17.5443 26.5505L17.3138 26.7426L17.314 26.7427L17.5443 26.5505ZM20.3856 26.5497L20.1561 26.3564L20.1553 26.3574L20.3856 26.5497ZM21.1871 26.5049L20.9782 26.7202L20.9786 26.7205L21.1871 26.5049ZM21.2295 27.3669L20.9997 27.174L20.9995 27.1742L21.2295 27.3669ZM18.9627 28.1991H18.9611V28.7991H18.9627V28.1991ZM18.9614 28.1991C18.2131 28.1984 17.4907 27.8449 16.9307 27.1738L16.47 27.5583C17.1286 28.3474 18.0122 28.7982 18.9609 28.7991L18.9614 28.1991ZM16.9302 27.1732C16.8205 27.0425 16.8328 26.8347 16.9509 26.7209L16.5345 26.2889C16.1864 26.6244 16.1608 27.1898 16.4705 27.5589L16.9302 27.1732ZM16.9517 26.7202C17.0578 26.6172 17.2144 26.6233 17.3138 26.7426L17.7747 26.3584C17.4548 25.9746 16.8939 25.9401 16.5338 26.2896L16.9517 26.7202ZM17.314 26.7427C17.7523 27.2678 18.3352 27.5781 18.9619 27.5781V26.9781C18.5441 26.9781 18.1204 26.7724 17.7746 26.3582L17.314 26.7427ZM18.9619 27.5781H18.9627V26.9781H18.9619V27.5781ZM18.9627 27.5781C19.5911 27.5781 20.1764 27.2683 20.6159 26.7419L20.1553 26.3574C19.8091 26.772 19.3833 26.9781 18.9627 26.9781V27.5781ZM20.6151 26.7429C20.7156 26.6235 20.8732 26.6182 20.9782 26.7202L21.396 26.2896C21.0364 25.9406 20.4764 25.976 20.1561 26.3564L20.6151 26.7429ZM20.9786 26.7205C21.0973 26.8354 21.1092 27.0436 20.9997 27.174L21.4593 27.5597C21.7692 27.1904 21.7432 26.6253 21.3957 26.2892L20.9786 26.7205ZM20.9995 27.1742C20.4372 27.8455 19.7133 28.1991 18.9627 28.1991V28.7991C19.9135 28.7991 20.7987 28.3484 21.4595 27.5595L20.9995 27.1742Z" fill="#9894A9" mask="url(#path-5-outside-2_437_3248)"/>
</svg>
