<svg width="81" height="36" viewBox="0 0 81 36" fill="none" xmlns="http://www.w3.org/2000/svg">
<path d="M0.0146582 25.5314V6.6484H4.43642V25.5314H0.0146582Z" fill="#171923"/>
<path d="M12.7172 14.4672V25.5314H8.29545V6.6484H12.5218V9.85704H12.7416C13.1732 8.79979 13.8613 7.95972 14.8059 7.33684C15.7587 6.71397 16.9354 6.40253 18.336 6.40253C19.6308 6.40253 20.7586 6.68118 21.7195 7.23849C22.6886 7.79581 23.4377 8.60309 23.9671 9.66034C24.5045 10.7176 24.7692 12.0002 24.761 13.5083V25.5314H20.3393V14.1967C20.3393 12.9345 20.0135 11.947 19.3621 11.2339C18.7188 10.5209 17.8271 10.1644 16.687 10.1644C15.9134 10.1644 15.2253 10.3365 14.6227 10.6807C14.0283 11.0167 13.56 11.5044 13.218 12.1437C12.8841 12.7829 12.7172 13.5574 12.7172 14.4672Z" fill="#171923"/>
<path d="M29.814 2.12434H34.2358V19.8518C34.2358 20.4501 34.3254 20.909 34.5045 21.2287C34.6918 21.5401 34.9361 21.7532 35.2374 21.8679C35.5387 21.9827 35.8726 22.04 36.239 22.04C36.5159 22.04 36.7683 22.0195 36.9964 21.9786C37.2325 21.9376 37.4117 21.9007 37.5338 21.8679L38.2789 25.347C38.0428 25.429 37.7048 25.5191 37.2651 25.6175C36.8335 25.7158 36.3042 25.7732 35.6772 25.7896C34.5697 25.8224 33.5721 25.6544 32.6845 25.2856C31.7969 24.9086 31.0925 24.3267 30.5714 23.5399C30.0583 22.7531 29.8059 21.7696 29.814 20.5894V2.12434Z" fill="#171923"/>
<path d="M63.1115 25.5314V6.6484H67.3989V9.79557H67.5943C67.9364 8.70553 68.5227 7.86547 69.3533 7.27537C70.192 6.67708 71.1488 6.37794 72.2238 6.37794C72.468 6.37794 72.7409 6.39023 73.0422 6.41482C73.3516 6.43121 73.6081 6.4599 73.8117 6.50087V10.5947C73.6244 10.5291 73.3272 10.4717 72.92 10.4225C72.521 10.3652 72.1342 10.3365 71.7596 10.3365C70.9534 10.3365 70.2287 10.5127 69.5854 10.8651C68.9502 11.2093 68.4494 11.6888 68.0829 12.3035C67.7165 12.9182 67.5333 13.6271 67.5333 14.4303V25.5314H63.1115Z" fill="#171923"/>
<path d="M76.0614 25.5314V6.6484H80.4832V25.5314H76.0614Z" fill="#171923"/>
<path d="M4.4071 2.21777C4.4071 3.44261 3.42054 4.43555 2.20355 4.43555C0.986564 4.43555 0 3.44261 0 2.21777C0 0.992931 0.986564 0 2.20355 0C3.42054 0 4.4071 0.992931 4.4071 2.21777Z" fill="#171923"/>
<path d="M80.5103 2.21777C80.5103 3.44261 79.5237 4.43555 78.3067 4.43555C77.0898 4.43555 76.1032 3.44261 76.1032 2.21777C76.1032 0.992931 77.0898 0 78.3067 0C79.5237 0 80.5103 0.992931 80.5103 2.21777Z" fill="#171923"/>
<path d="M27.0876 6.70741H37.9441V10.0611H27.0876V6.70741Z" fill="#171923"/>
<path d="M40.2578 15.7655C40.3078 13.2029 41.3514 10.7622 43.1644 8.96767C44.9775 7.17316 47.4154 6.16797 49.9546 6.16797C52.4938 6.16797 54.9317 7.17316 56.7447 8.96767C58.5578 10.7622 59.6014 13.2029 59.6513 15.7655C59.6513 21.0967 55.2828 25.3851 49.9076 25.3851C48.6472 25.3971 47.3968 25.1574 46.2286 24.6797C45.0603 24.202 43.9971 23.4958 43.1002 22.6018C42.2034 21.7077 41.4905 20.6434 41.0027 19.4702C40.5149 18.2969 40.2617 17.0379 40.2578 15.7655ZM54.9786 15.7352C54.9969 15.0575 54.8806 14.383 54.6363 13.7515C54.3921 13.12 54.025 12.5444 53.5567 12.0585C53.0883 11.5726 52.5283 11.1864 51.9096 10.9227C51.2909 10.659 50.6261 10.5232 49.9546 10.5232C49.283 10.5232 48.6183 10.659 47.9996 10.9227C47.3809 11.1864 46.8208 11.5726 46.3525 12.0585C45.8842 12.5444 45.517 13.12 45.2728 13.7515C45.0286 14.383 44.9122 15.0575 44.9306 15.7352C44.9122 16.4128 45.0286 17.0873 45.2728 17.7188C45.517 18.3503 45.8842 18.926 46.3525 19.4119C46.8208 19.8977 47.3809 20.2839 47.9996 20.5476C48.6183 20.8113 49.283 20.9472 49.9546 20.9472C50.6261 20.9472 51.2909 20.8113 51.9096 20.5476C52.5283 20.2839 53.0883 19.8977 53.5567 19.4119C54.025 18.926 54.3921 18.3503 54.6363 17.7188C54.8806 17.0873 54.9969 16.4128 54.9786 15.7352ZM44.4949 33.1126C44.1418 33.3401 43.845 33.3212 43.6272 33.0254L41.8054 30.466C41.5913 30.1702 41.7303 29.8138 42.2298 29.4953C45.3202 27.5137 49.0222 26.7424 52.6372 27.3271C56.2522 27.9118 59.5302 29.8119 61.8525 32.669C62.2281 33.1316 62.2281 33.5145 61.9539 33.7269L59.4184 35.5772C59.1217 35.7934 58.8325 35.7137 58.5695 35.3876C56.9046 33.3373 54.5532 31.9736 51.9598 31.5544C49.3665 31.1352 46.7108 31.6896 44.4949 33.1126Z" fill="#171923"/>
</svg>
