<svg width="122" height="55" viewBox="0 0 122 55" fill="none" xmlns="http://www.w3.org/2000/svg">
<path d="M0.0222121 39.3333V10.2424H6.72266V39.3333H0.0222121Z" fill="#FCFBF9"/>
<path d="M19.2708 22.2879V39.3333H12.5704V10.2424H18.9747V15.1856H19.3078C19.9618 13.5568 21.0046 12.2626 22.436 11.303C23.8797 10.3434 25.6628 9.86364 27.7852 9.86364C29.7472 9.86364 31.4563 10.2929 32.9123 11.1515C34.3808 12.0101 35.516 13.2538 36.3181 14.8826C37.1325 16.5114 37.5336 18.4874 37.5212 20.8106V39.3333H30.8208V21.8712C30.8208 19.9268 30.3272 18.4053 29.34 17.3068C28.3652 16.2083 27.014 15.6591 25.2864 15.6591C24.1142 15.6591 23.0714 15.9242 22.1583 16.4545C21.2575 16.9722 20.548 17.7235 20.0297 18.7083C19.5238 19.6932 19.2708 20.8864 19.2708 22.2879Z" fill="#FCFBF9"/>
<path d="M45.1782 3.27273H51.8787V30.5833C51.8787 31.5051 52.0144 32.2121 52.2859 32.7045C52.5697 33.1843 52.9399 33.5126 53.3965 33.6894C53.853 33.8662 54.359 33.9545 54.9143 33.9545C55.3338 33.9545 55.7163 33.923 56.0618 33.8599C56.4197 33.7967 56.6912 33.7399 56.8763 33.6894L58.0054 39.0492C57.6475 39.1755 57.1354 39.3144 56.4691 39.4659C55.8151 39.6174 55.013 39.7058 54.0628 39.7311C52.3846 39.7816 50.873 39.5227 49.528 38.9545C48.183 38.3737 47.1156 37.4773 46.3258 36.2652C45.5484 35.053 45.1659 33.5379 45.1782 31.7197V3.27273Z" fill="#FCFBF9"/>
<path d="M95.635 39.3333V10.2424H102.132V15.0909H102.428C102.946 13.4116 103.835 12.1174 105.093 11.2083C106.364 10.2866 107.814 9.82576 109.443 9.82576C109.813 9.82576 110.227 9.84469 110.683 9.88257C111.152 9.90782 111.541 9.95202 111.849 10.0151V16.322C111.566 16.221 111.115 16.1326 110.498 16.0568C109.894 15.9684 109.307 15.9242 108.74 15.9242C107.518 15.9242 106.42 16.1957 105.445 16.7386C104.483 17.2689 103.724 18.0076 103.168 18.9545C102.613 19.9015 102.335 20.9937 102.335 22.2311V39.3333H95.635Z" fill="#FCFBF9"/>
<path d="M115.258 39.3333V10.2424H121.959V39.3333H115.258Z" fill="#FCFBF9"/>
<path d="M60.267 24.2878C60.3429 20.3393 61.927 16.5787 64.679 13.8138C67.4311 11.0488 71.1317 9.5 74.986 9.5C78.8403 9.5 82.5409 11.0488 85.293 13.8138C88.0451 16.5787 89.6291 20.3393 89.705 24.2878C89.705 32.502 83.0739 39.1096 74.9147 39.1096C73.0015 39.1281 71.1036 38.7587 69.3302 38.0227C67.5568 37.2867 65.943 36.1986 64.5816 34.8211C63.2202 33.4435 62.1381 31.8037 61.3977 29.996C60.6572 28.1882 60.273 26.2483 60.267 24.2878ZM82.6121 24.2411C82.6399 23.197 82.4633 22.1577 82.0926 21.1847C81.7219 20.2117 81.1646 19.3247 80.4537 18.5761C79.7428 17.8275 78.8927 17.2324 77.9536 16.8261C77.0145 16.4198 76.0054 16.2105 74.986 16.2105C73.9666 16.2105 72.9576 16.4198 72.0185 16.8261C71.0793 17.2324 70.2292 17.8275 69.5183 18.5761C68.8074 19.3247 68.2502 20.2117 67.8794 21.1847C67.5087 22.1577 67.3321 23.197 67.36 24.2411C67.3321 25.2852 67.5087 26.3245 67.8794 27.2975C68.2502 28.2705 68.8074 29.1575 69.5183 29.9061C70.2292 30.6547 71.0793 31.2498 72.0185 31.6561C72.9576 32.0624 73.9666 32.2717 74.986 32.2717C76.0054 32.2717 77.0145 32.0624 77.9536 31.6561C78.8927 31.2498 79.7428 30.6547 80.4537 29.9061C81.1646 29.1575 81.7219 28.2705 82.0926 27.2975C82.4633 26.3245 82.6399 25.2852 82.6121 24.2411ZM66.6986 51.0161C66.1626 51.3667 65.7122 51.3375 65.3815 50.8818L62.6161 46.9383C62.2911 46.4826 62.5021 45.9334 63.2604 45.4426C67.9513 42.3893 73.5707 41.201 79.058 42.1019C84.5454 43.0027 89.5211 45.9305 93.0462 50.3326C93.6164 51.0453 93.6164 51.6354 93.2001 51.9626L89.3515 54.8136C88.9011 55.1466 88.462 55.0239 88.0629 54.5215C85.5356 51.3623 81.9663 49.2612 78.0298 48.6153C74.0933 47.9694 70.0623 48.8235 66.6986 51.0161Z" fill="#FCFBF9"/>
<path d="M6.67824 3.41667C6.67824 5.30364 5.18326 6.83333 3.33912 6.83333C1.49497 6.83333 0 5.30364 0 3.41667C0 1.52969 1.49497 0 3.33912 0C5.18326 0 6.67824 1.52969 6.67824 3.41667Z" fill="#FCFBF9"/>
<path d="M122 3.41667C122 5.30364 120.505 6.83333 118.661 6.83333C116.817 6.83333 115.322 5.30364 115.322 3.41667C115.322 1.52969 116.817 0 118.661 0C120.505 0 122 1.52969 122 3.41667Z" fill="#FCFBF9"/>
<path d="M41.0467 10.3333H57.498V15.5H41.0467V10.3333Z" fill="#FCFBF9"/>
</svg>
