<svg width="24" height="33" viewBox="0 0 24 33" fill="none" xmlns="http://www.w3.org/2000/svg">
<path d="M0 10.7252C0.0547835 7.86148 1.19892 5.13402 3.18669 3.12866C5.17445 1.12331 7.8473 0 10.6312 0C13.415 0 16.0879 1.12331 18.0756 3.12866C20.0634 5.13402 21.2076 7.86148 21.2623 10.7252C21.2623 16.6828 16.4729 21.4751 10.5797 21.4751C9.1978 21.4885 7.82697 21.2206 6.5461 20.6868C5.26523 20.153 4.09961 19.3639 3.11631 18.3647C2.13302 17.3656 1.35147 16.1763 0.816643 14.8652C0.281819 13.5541 0.00428255 12.1471 0 10.7252ZM16.1393 10.6913C16.1594 9.93407 16.0318 9.18032 15.7641 8.47462C15.4963 7.76893 15.0938 7.12561 14.5803 6.58266C14.0669 6.03971 13.4529 5.60814 12.7746 5.31346C12.0963 5.01877 11.3674 4.86695 10.6312 4.86695C9.89488 4.86695 9.16607 5.01877 8.48778 5.31346C7.80948 5.60814 7.19547 6.03971 6.682 6.58266C6.16853 7.12561 5.76602 7.76893 5.49827 8.47462C5.23051 9.18032 5.10293 9.93407 5.12306 10.6913C5.10293 11.4486 5.23051 12.2024 5.49827 12.9081C5.76602 13.6138 6.16853 14.2571 6.682 14.8C7.19547 15.343 7.80948 15.7746 8.48778 16.0692C9.16607 16.3639 9.89488 16.5158 10.6312 16.5158C11.3674 16.5158 12.0963 16.3639 12.7746 16.0692C13.4529 15.7746 14.0669 15.343 14.5803 14.8C15.0938 14.2571 15.4963 13.6138 15.7641 12.9081C16.0318 12.2024 16.1594 11.4486 16.1393 10.6913ZM4.64535 30.1106C4.25824 30.3648 3.9329 30.3437 3.69404 30.0132L1.6967 27.153C1.46196 26.8225 1.61434 26.4242 2.16206 26.0683C5.55017 23.8538 9.60891 22.9919 13.5723 23.6453C17.5357 24.2987 21.1295 26.4221 23.6756 29.6149C24.0874 30.1318 24.0874 30.5598 23.7868 30.797L21.007 32.8648C20.6817 33.1063 20.3646 33.0173 20.0763 32.6529C18.2509 30.3617 15.6729 28.8378 12.8296 28.3693C9.9864 27.9009 7.07486 28.5203 4.64535 30.1106Z" fill="#141416"/>
</svg>
