<svg width="25" height="25" viewBox="0 0 25 25" fill="none" xmlns="http://www.w3.org/2000/svg">
<path fill-rule="evenodd" clip-rule="evenodd" d="M11.9111 4.5C8.04514 4.5 4.91113 7.63401 4.91113 11.5C4.91113 15.366 8.04514 18.5 11.9111 18.5C15.7771 18.5 18.9111 15.366 18.9111 11.5C18.9111 7.63401 15.7771 4.5 11.9111 4.5ZM2.91113 11.5C2.91113 6.52944 6.94057 2.5 11.9111 2.5C16.8817 2.5 20.9111 6.52944 20.9111 11.5C20.9111 16.4706 16.8817 20.5 11.9111 20.5C6.94057 20.5 2.91113 16.4706 2.91113 11.5Z" fill="#FCFBF9"/>
<path fill-rule="evenodd" clip-rule="evenodd" d="M16.8544 16.4433C17.2449 16.0528 17.8781 16.0528 18.2686 16.4433L22.6186 20.7933C23.0092 21.1838 23.0092 21.817 22.6186 22.2075C22.2281 22.598 21.5949 22.598 21.2044 22.2075L16.8544 17.8575C16.4639 17.467 16.4639 16.8338 16.8544 16.4433Z" fill="#FCFBF9"/>
</svg>
