<svg width="25" height="25" viewBox="0 0 25 25" fill="none" xmlns="http://www.w3.org/2000/svg">
<path fill-rule="evenodd" clip-rule="evenodd" d="M11.9121 4.5C8.04612 4.5 4.91211 7.63401 4.91211 11.5C4.91211 15.366 8.04612 18.5 11.9121 18.5C15.7781 18.5 18.9121 15.366 18.9121 11.5C18.9121 7.63401 15.7781 4.5 11.9121 4.5ZM2.91211 11.5C2.91211 6.52944 6.94155 2.5 11.9121 2.5C16.8827 2.5 20.9121 6.52944 20.9121 11.5C20.9121 16.4706 16.8827 20.5 11.9121 20.5C6.94155 20.5 2.91211 16.4706 2.91211 11.5Z" fill="#FCFBF9"/>
<path fill-rule="evenodd" clip-rule="evenodd" d="M16.8554 16.4433C17.2459 16.0528 17.8791 16.0528 18.2696 16.4433L22.6196 20.7933C23.0101 21.1838 23.0101 21.817 22.6196 22.2075C22.2291 22.598 21.5959 22.598 21.2054 22.2075L16.8554 17.8575C16.4649 17.467 16.4649 16.8338 16.8554 16.4433Z" fill="#FCFBF9"/>
</svg>
