<svg width="25" height="25" viewBox="0 0 25 25" fill="none" xmlns="http://www.w3.org/2000/svg">
<path fill-rule="evenodd" clip-rule="evenodd" d="M11.1914 4.5C7.32541 4.5 4.19141 7.63401 4.19141 11.5C4.19141 15.366 7.32541 18.5 11.1914 18.5C15.0574 18.5 18.1914 15.366 18.1914 11.5C18.1914 7.63401 15.0574 4.5 11.1914 4.5ZM2.19141 11.5C2.19141 6.52944 6.22084 2.5 11.1914 2.5C16.162 2.5 20.1914 6.52944 20.1914 11.5C20.1914 16.4706 16.162 20.5 11.1914 20.5C6.22084 20.5 2.19141 16.4706 2.19141 11.5Z" fill="#FCFBF9"/>
<path fill-rule="evenodd" clip-rule="evenodd" d="M16.1347 16.4433C16.5252 16.0528 17.1584 16.0528 17.5489 16.4433L21.8989 20.7933C22.2894 21.1838 22.2894 21.817 21.8989 22.2075C21.5084 22.598 20.8752 22.598 20.4847 22.2075L16.1347 17.8575C15.7442 17.467 15.7442 16.8338 16.1347 16.4433Z" fill="#FCFBF9"/>
</svg>
