<svg width="199" height="220" viewBox="0 0 199 220" fill="none" xmlns="http://www.w3.org/2000/svg">
<g clip-path="url(#clip0_437_3361)">
<rect width="199" height="220" rx="30" fill="#171923"/>
<path d="M112.359 247.505C112.166 252.105 110.118 254.64 106.085 254.714L71.5867 254.788C67.5775 254.828 65.2586 251.326 65.5622 244.839C67.3376 204.637 83.8463 166.635 111.973 138.006C140.099 109.376 177.898 92.0982 218.235 89.4335C224.763 89.0055 228.2 91.4327 228.37 95.2312L228.928 129.638C228.99 133.662 226.445 135.744 221.854 136.03C192.916 137.927 165.797 150.317 145.622 170.857C125.447 191.397 113.614 218.665 112.359 247.505Z" fill="#2D2A3C"/>
</g>
<rect x="0.5" y="0.5" width="198" height="219" rx="29.5" stroke="#E3E4FD"/>
<defs>
<clipPath id="clip0_437_3361">
<rect width="199" height="220" rx="30" fill="white"/>
</clipPath>
</defs>
</svg>
