<svg width="720" height="1080" viewBox="0 0 720 1080" fill="none" xmlns="http://www.w3.org/2000/svg">
<g clip-path="url(#clip0_437_2386)">
<rect width="720" height="1080" fill="#171923"/>
<g opacity="0.5">
<path d="M-70.4966 843.734C-82.4682 843.232 -89.0632 837.907 -89.2564 827.421L-89.4488 737.725C-89.5546 727.301 -80.4406 721.272 -63.5579 722.061C41.0634 726.677 139.959 769.6 214.466 842.728C288.973 915.857 333.936 1014.13 340.871 1119.01C341.984 1135.98 335.668 1144.92 325.783 1145.36L236.242 1146.81C225.77 1146.97 220.351 1140.36 219.608 1128.42C214.67 1053.18 182.427 982.672 128.973 930.216C75.5191 877.761 4.55849 846.995 -70.4966 843.734Z" fill="#2D2A3C"/>
</g>
<g opacity="0.5">
<path d="M429.734 127.496C429.232 139.468 423.907 146.063 413.421 146.256L323.725 146.448C313.301 146.554 307.272 137.44 308.061 120.557C312.677 15.9361 355.6 -82.96 428.728 -157.467C501.857 -231.973 600.133 -276.936 705.01 -283.871C721.984 -284.985 730.92 -278.668 731.362 -268.783L732.813 -179.243C732.973 -168.77 726.356 -163.351 714.421 -162.609C639.182 -157.67 568.672 -125.427 516.216 -71.9733C463.761 -18.5196 432.995 52.441 429.734 127.496Z" fill="#2D2A3C"/>
</g>
<g opacity="0.5">
<path d="M589.003 231.823C581.022 231.489 576.625 227.938 576.496 220.948L576.368 161.151C576.297 154.201 582.373 150.182 593.628 150.708C663.376 153.785 729.307 182.401 778.978 231.153C828.649 279.905 858.624 345.423 863.247 415.341C863.99 426.657 859.779 432.614 853.189 432.909L793.495 433.876C786.514 433.983 782.901 429.571 782.406 421.614C779.114 371.456 757.618 324.448 721.982 289.478C686.346 254.508 639.039 233.997 589.003 231.823Z" fill="#2D2A3C"/>
</g>
<g opacity="0.5">
<path d="M738.865 741.661C739.114 735.731 741.745 732.464 746.927 732.368L791.252 732.273C796.403 732.221 799.383 736.735 798.993 745.098C796.712 796.925 775.5 845.915 739.362 882.823C703.224 919.732 654.659 942.005 602.832 945.44C594.443 945.992 590.028 942.863 589.809 937.966L589.092 893.611C589.013 888.423 592.283 885.738 598.181 885.371C635.362 882.924 670.206 866.952 696.128 840.473C722.05 813.993 737.254 778.841 738.865 741.661Z" fill="#2D2A3C"/>
</g>
</g>
<defs>
<clipPath id="clip0_437_2386">
<rect width="720" height="1080" fill="white"/>
</clipPath>
</defs>
</svg>
