<svg width="50" height="45" viewBox="0 0 50 45" fill="none" xmlns="http://www.w3.org/2000/svg">
<path d="M23.9423 40.6577C23.9423 41.0363 24.2494 41.3434 24.628 41.3434C25.0066 41.3434 25.3137 41.0367 25.3137 40.6577V26.7291C25.3137 26.3504 25.0066 26.0434 24.628 26.0434C24.2494 26.0434 23.9423 26.3504 23.9423 26.7291V40.6577Z" fill="#4B33D9" stroke="#4B33D9" stroke-width="0.3"/>
<path d="M24.6281 27.6999L20.8274 31.5006L24.6281 27.6999ZM24.6281 27.6999L28.4289 31.5007C28.5626 31.6344 28.7386 31.7015 28.9137 31.7015L24.6281 27.6999ZM19.8576 31.5007C20.1254 31.7685 20.5597 31.7686 20.8273 31.5007L28.9138 31.7015C29.0886 31.7015 29.2647 31.635 29.3987 31.5006C29.6665 31.2327 29.6665 30.7988 29.3986 30.5309L25.113 26.2452C24.8452 25.9775 24.4108 25.9773 24.1432 26.2452C24.1432 26.2453 24.1431 26.2453 24.1431 26.2453L19.8576 30.5309C19.5897 30.7988 19.5897 31.2328 19.8576 31.5007Z" fill="#4B33D9" stroke="#4B33D9" stroke-width="0.3"/>
<path d="M40.3167 30.3667H37.1752C36.8861 30.3667 36.6516 30.1322 36.6516 29.8431C36.6516 29.554 36.8861 29.3195 37.1752 29.3195L33.163 28.5951C37.4934 28.5951 28.8274 35.7206 28.8274 31.3902C28.8274 27.0598 38.0345 27.8963 33.7041 27.8963L32.2893 30.6914C32.1374 30.6914 31.8479 24.5173 31.7484 24.4024C23.3589 40.4586 30.7001 29.4703 30.7218 29.3199C30.7685 28.9938 34.5435 31.0104 34.5435 30.6914C34.5435 26.9384 37.9533 29.3195 34.2003 29.3195C32.7402 29.3195 35.0191 22.8401 33.8447 23.7037C35.9348 41.5519 28.4038 23.2888 28.2546 23.0049C24.9287 16.6718 34.1558 30.0735 29.6521 35.5828C27.7549 37.9038 16.7131 19.1258 17.3105 22.0684C17.3763 22.3934 21.9656 26.4988 21.9656 26.4988L19.1705 27.8963C14.8401 27.8963 17.773 23.5659 17.773 27.8963C17.773 32.2267 14.1413 28.5951 18.4718 28.5951L12.0425 29.3199C12.3316 29.3199 12.5661 29.5544 12.5661 29.8435C12.5661 30.1326 12.3316 30.3671 12.0425 30.3671H8.90105C3.99312 30.3671 0 26.374 0 21.4661C0 16.6958 3.77205 12.7898 8.49003 12.5744C8.04685 9.52149 8.89432 6.44204 10.8585 4.03882C15.6804 -1.86014 24.9211 -1.19894 28.8274 5.37883C30.0736 4.59755 31.4995 4.1877 32.9862 4.1877C37.5332 4.1877 41.1363 8.05779 40.821 12.5793C45.4955 12.8415 49.2175 16.7269 49.2175 21.4657C49.2175 26.374 45.2246 30.3667 40.3167 30.3667Z" fill="#4B33D9"/>
<path d="M10.6987 29.5488C10.6987 37.1809 16.9067 43.3887 24.5386 43.3887C32.1706 43.3887 38.3785 37.1808 38.3785 29.5488C38.3785 21.9168 32.1706 15.709 24.5386 15.709C16.9066 15.709 10.6987 21.9169 10.6987 29.5488Z" fill="#4B33D9" stroke="#FCFBF9" stroke-width="1.5"/>
<path d="M24.245 34.8196C24.245 35.1141 24.4839 35.3529 24.7783 35.3529C25.0728 35.3529 25.3117 35.1145 25.3117 34.8196V24.8531C25.3117 24.5586 25.0728 24.3197 24.7783 24.3197C24.4838 24.3197 24.245 24.5586 24.245 24.8531V34.8196Z" fill="#FCFBF9" stroke="#FCFBF9" stroke-width="0.3"/>
<path d="M28.1157 28.1908L28.222 28.2966C28.1178 28.4013 27.9806 28.453 27.8447 28.453L28.1157 28.1908ZM28.1157 28.1908C28.041 28.2658 27.9427 28.303 27.8447 28.303L28.1157 28.1908ZM28.1157 28.1908L28.2218 28.2968C28.4302 28.0885 28.4302 27.7509 28.2218 27.5426L25.1552 24.476C24.947 24.2677 24.6091 24.2676 24.401 24.476M28.1157 28.1908L24.401 24.476M24.7781 25.6074L27.4676 28.2968C27.5716 28.4008 27.7085 28.453 27.8447 28.453L24.7781 25.6074ZM24.7781 25.6074L22.0887 28.2967L22.0886 28.2968L24.7781 25.6074ZM24.401 24.476C24.401 24.476 24.4009 24.476 24.4009 24.476M24.401 24.476L24.4009 24.476M24.4009 24.476C24.4009 24.476 24.4009 24.4761 24.4009 24.4761L24.4009 24.476Z" fill="#FCFBF9" stroke="#FCFBF9" stroke-width="0.3"/>
</svg>
