<svg width="82" height="82" viewBox="0 0 82 82" fill="none" xmlns="http://www.w3.org/2000/svg">
<rect x="7.97266" y="7.97266" width="66.0556" height="66.0556" rx="33.0278" fill="#FFAB2E"/>
<path fill-rule="evenodd" clip-rule="evenodd" d="M48.4858 34.3428C48.4858 38.4951 45.1565 41.8246 41.0012 41.8246C36.8474 41.8246 33.5166 38.4951 33.5166 34.3428C33.5166 30.1904 36.8474 26.8623 41.0012 26.8623C45.1565 26.8623 48.4858 30.1904 48.4858 34.3428ZM40.9998 55.1408C34.8673 55.1408 29.6895 54.144 29.6895 50.2985C29.6895 46.4515 34.8998 45.4901 40.9998 45.4901C47.1337 45.4901 52.3101 46.4869 52.3101 50.3324C52.3101 54.1794 47.0998 55.1408 40.9998 55.1408Z" fill="#4B33D9"/>
<circle cx="41.0008" cy="40.9999" r="32.6786" stroke="#F7F7F7" stroke-width="2"/>
</svg>
