<svg width="58" height="58" viewBox="0 0 58 58" fill="none" xmlns="http://www.w3.org/2000/svg">
<rect x="5.63867" y="5.63867" width="46.7222" height="46.7222" rx="23.3611" fill="#FFAB2E"/>
<path fill-rule="evenodd" clip-rule="evenodd" d="M34.295 24.2911C34.295 27.2281 31.9401 29.5831 29.001 29.5831C26.0629 29.5831 23.707 27.2281 23.707 24.2911C23.707 21.354 26.0629 19 29.001 19C31.9401 19 34.295 21.354 34.295 24.2911ZM29 39.0019C24.6624 39.0019 21 38.2968 21 35.5768C21 32.8558 24.6854 32.1758 29 32.1758C33.3386 32.1758 37 32.8808 37 35.6008C37 38.3218 33.3146 39.0019 29 39.0019Z" fill="#4B33D9"/>
<circle cx="29.0001" cy="29.0001" r="22.8214" stroke="#F7F7F7" stroke-width="2"/>
</svg>
