<svg width="16" height="16" viewBox="0 0 16 16" fill="none" xmlns="http://www.w3.org/2000/svg">
<path d="M15 5.2L15 2.24444C15 1.55716 14.4428 1 13.7556 1L10.8 1C10.1127 1 9.55556 1.55716 9.55556 2.24444L9.55556 5.2C9.55556 5.88729 10.1127 6.44444 10.8 6.44444L13.7556 6.44444C14.4428 6.44444 15 5.88729 15 5.2Z" stroke="#4B33D9" stroke-width="1.59055" stroke-linecap="round" stroke-linejoin="round"/>
<path d="M15 13.7556L15 10.8C15 10.1127 14.4428 9.55556 13.7556 9.55556L10.8 9.55556C10.1127 9.55556 9.55556 10.1127 9.55556 10.8L9.55556 13.7556C9.55556 14.4428 10.1127 15 10.8 15L13.7556 15C14.4428 15 15 14.4428 15 13.7556Z" stroke="#4B33D9" stroke-width="1.59055" stroke-linecap="round" stroke-linejoin="round"/>
<path d="M6.44444 13.7556L6.44444 10.8C6.44444 10.1127 5.88729 9.55556 5.2 9.55556L2.24444 9.55556C1.55716 9.55556 1 10.1127 1 10.8L1 13.7556C1 14.4428 1.55716 15 2.24444 15L5.2 15C5.88729 15 6.44444 14.4428 6.44444 13.7556Z" stroke="#4B33D9" stroke-width="1.59055" stroke-linecap="round" stroke-linejoin="round"/>
<path d="M6.44444 5.2L6.44444 2.24444C6.44444 1.55716 5.88729 1 5.2 1L2.24445 0.999999C1.55716 0.999999 1 1.55716 1 2.24444L1 5.2C1 5.88729 1.55716 6.44444 2.24444 6.44444L5.2 6.44444C5.88729 6.44444 6.44444 5.88729 6.44444 5.2Z" stroke="#4B33D9" stroke-width="1.59055" stroke-linecap="round" stroke-linejoin="round"/>
</svg>
