<svg width="18" height="18" viewBox="0 0 18 18" fill="none" xmlns="http://www.w3.org/2000/svg">
<path d="M2.0152 7.4C1.4544 7.4 1 7.8544 1 8.4152L1 9.584C1 10.1456 1.4544 10.6 2.0152 10.6C2.4776 10.6 2.8744 10.9168 3.044 11.348C3.0712 11.416 3.1 11.484 3.1288 11.5504C3.3128 11.9752 3.2568 12.48 2.9296 12.808C2.73937 12.9984 2.63251 13.2565 2.63251 13.5256C2.63251 13.7947 2.73937 14.0528 2.9296 14.2432L3.7568 15.0704C3.94717 15.2606 4.20528 15.3675 4.4744 15.3675C4.74352 15.3675 5.00163 15.2606 5.192 15.0704C5.52 14.7424 6.024 14.6864 6.4496 14.872C6.51658 14.9012 6.58405 14.9292 6.652 14.956C7.0832 15.1256 7.4 15.5224 7.4 15.9848C7.4 16.5456 7.8544 17 8.4152 17L9.5848 17C10.1456 17 10.6 16.5456 10.6 15.9848C10.6 15.5224 10.9168 15.1256 11.348 14.956C11.416 14.9288 11.484 14.9 11.5504 14.872C11.9752 14.6872 12.48 14.7432 12.808 15.0704C12.9984 15.2606 13.2565 15.3675 13.5256 15.3675C13.7947 15.3675 14.0528 15.2606 14.2432 15.0704L15.0704 14.2432C15.2606 14.0528 15.3675 13.7947 15.3675 13.5256C15.3675 13.2565 15.2606 12.9984 15.0704 12.808C14.7424 12.48 14.6864 11.976 14.8712 11.5504C14.9008 11.484 14.9288 11.416 14.956 11.348C15.1256 10.9168 15.5224 10.6 15.9848 10.6C16.5456 10.6 17 10.1456 17 9.5848L17 8.4152C17 7.8544 16.5456 7.4 15.9848 7.4C15.5224 7.4 15.1256 7.0832 14.9552 6.652C14.9288 6.584 14.9008 6.516 14.872 6.4496C14.6864 6.0248 14.7432 5.52 15.0704 5.1928C15.1647 5.09852 15.2395 4.98659 15.2906 4.8634C15.3416 4.7402 15.3679 4.60815 15.3679 4.4748C15.3679 4.34145 15.3416 4.2094 15.2906 4.0862C15.2395 3.96301 15.1647 3.85107 15.0704 3.7568L14.2432 2.9296C14.0528 2.73937 13.7947 2.63251 13.5256 2.63251C13.2565 2.63251 12.9984 2.73937 12.808 2.9296C12.48 3.2576 11.976 3.3136 11.5504 3.1288C11.484 3.0992 11.416 3.0712 11.348 3.044C10.9168 2.8744 10.6 2.4776 10.6 2.0152C10.6 1.4544 10.1456 1 9.5848 1L8.416 1C7.8552 1 7.4008 1.4544 7.4008 2.0152C7.4008 2.4776 7.084 2.8744 6.6528 3.0448C6.58484 3.07161 6.51737 3.09961 6.4504 3.1288C6.0256 3.3128 5.5208 3.2568 5.1928 2.9296C5.00243 2.73937 4.74432 2.63251 4.4752 2.63251C4.20608 2.63251 3.94797 2.73937 3.7576 2.9296L2.9304 3.7568C2.74017 3.94717 2.63331 4.20528 2.63331 4.4744C2.63331 4.74352 2.74017 5.00163 2.9304 5.192C3.2584 5.52 3.3144 6.024 3.1296 6.4496C3.10017 6.51657 3.07189 6.58405 3.0448 6.652C2.8744 7.0832 2.4776 7.4 2.016 7.4L2.0152 7.4Z" stroke="#9894A9" stroke-width="1.59055" stroke-linecap="round" stroke-linejoin="round"/>
<path d="M9 5.8C9.84869 5.8 10.6626 6.13714 11.2627 6.73726C11.8629 7.33737 12.2 8.15131 12.2 9C12.2 9.84869 11.8629 10.6626 11.2627 11.2627C10.6626 11.8629 9.84869 12.2 9 12.2C8.15131 12.2 7.33737 11.8629 6.73726 11.2627C6.13714 10.6626 5.8 9.84869 5.8 9C5.8 8.15131 6.13714 7.33737 6.73726 6.73726C7.33737 6.13714 8.15131 5.8 9 5.8Z" stroke="#9894A9" stroke-width="1.59055" stroke-linecap="round" stroke-linejoin="round"/>
</svg>
