<svg width="141" height="43" viewBox="0 0 141 43" fill="none" xmlns="http://www.w3.org/2000/svg">
<path d="M21.197 0.246094C9.61991 0.246094 0.234375 9.63391 0.234375 21.2141C0.234375 32.7948 9.61991 42.1819 21.197 42.1819C32.7754 42.1819 42.1599 32.7948 42.1599 21.2141C42.1599 9.63466 32.7754 0.247095 21.1968 0.247095L21.197 0.246094ZM30.8103 30.488C30.4349 31.104 29.6288 31.2993 29.013 30.9212C24.0912 27.914 17.8953 27.233 10.5984 28.9005C9.89526 29.0608 9.19437 28.6201 9.03416 27.9165C8.8732 27.2129 9.31202 26.5118 10.0169 26.3516C18.0022 24.5268 24.8517 25.3125 30.3773 28.6902C30.9931 29.0683 31.1883 29.8721 30.8103 30.488ZM33.3761 24.7786C32.903 25.5478 31.8967 25.7907 31.1282 25.3175C25.4935 21.8531 16.9043 20.8498 10.2395 22.8734C9.3751 23.1346 8.46218 22.6473 8.19984 21.7843C7.93951 20.9197 8.42688 20.0082 9.28974 19.7453C16.9028 17.4348 26.3671 18.554 32.8379 22.5314C33.6064 23.0046 33.8492 24.0112 33.3761 24.7789V24.7786ZM33.5964 18.8334C26.8402 14.8195 15.6934 14.4504 9.24293 16.4087C8.2071 16.7229 7.11169 16.138 6.79779 15.1019C6.48389 14.0653 7.06814 12.9703 8.10472 12.6553C15.5095 10.4069 27.819 10.8413 35.5975 15.4602C36.5312 16.0133 36.8366 17.2169 36.2834 18.1476C35.7326 19.0796 34.5261 19.3868 33.5974 18.8334H33.5964ZM57.2668 19.6026C53.6471 18.7393 53.0038 18.1333 53.0038 16.8601C53.0038 15.6572 54.1352 14.8477 55.8199 14.8477C57.452 14.8477 59.0691 15.4624 60.7663 16.7279C60.8163 16.7662 60.8814 16.7815 60.944 16.7715C61.0091 16.762 61.0641 16.7272 61.1017 16.6748L62.8689 14.183C62.9415 14.0803 62.9215 13.9388 62.8239 13.8605C60.8038 12.2397 58.5309 11.4517 55.8725 11.4517C51.965 11.4517 49.234 13.7976 49.234 17.1541C49.234 20.7534 51.5895 22.0279 55.6597 23.0117C59.1216 23.8096 59.7074 24.4782 59.7074 25.673C59.7074 26.9976 58.5259 27.8214 56.6234 27.8214C54.5107 27.8214 52.786 27.1078 50.8585 25.4402C50.811 25.3976 50.7459 25.3801 50.6858 25.3826C50.6207 25.3876 50.5632 25.4176 50.5231 25.4652L48.5406 27.8239C48.458 27.924 48.468 28.0693 48.5631 28.1544C50.806 30.1575 53.5645 31.2141 56.5433 31.2141C60.7537 31.2141 63.4747 28.9131 63.4747 25.35C63.4822 22.3436 61.6824 20.6785 57.2743 19.6059L57.2668 19.6026ZM73.0019 16.0321C71.1771 16.0321 69.6802 16.7512 68.4436 18.2247V16.5662C68.4436 16.4352 68.3385 16.3285 68.2083 16.3285H64.9666C64.8365 16.3285 64.7313 16.4352 64.7313 16.5662V34.995C64.7313 35.1252 64.8365 35.2329 64.9666 35.2329H68.2083C68.3385 35.2329 68.4436 35.1252 68.4436 34.995V29.1785C69.6802 30.5631 71.1771 31.2417 73.0019 31.2417C76.3938 31.2417 79.8282 28.6301 79.8282 23.6376C79.8332 18.6441 76.3988 16.0318 73.0044 16.0318L73.0019 16.0321ZM76.0584 23.6376C76.0584 26.1788 74.4939 27.9541 72.251 27.9541C70.0356 27.9541 68.3635 26.0987 68.3635 23.6376C68.3635 21.1763 70.0356 19.3214 72.251 19.3214C74.4563 19.3212 76.0584 21.136 76.0584 23.6374V23.6376ZM88.627 16.0321C84.2589 16.0321 80.837 19.3963 80.837 23.692C80.837 27.9416 84.2364 31.2692 88.5744 31.2692C92.9575 31.2692 96.3894 27.9165 96.3894 23.6376C96.3894 19.3733 92.9801 16.0326 88.627 16.0326V16.0321ZM88.627 27.9791C86.304 27.9791 84.5518 26.1112 84.5518 23.6364C84.5518 21.1503 86.2439 19.3462 88.5744 19.3462C90.9124 19.3462 92.6747 21.2134 92.6747 23.6907C92.6747 26.1763 90.9725 27.9791 88.627 27.9791ZM105.716 16.3285H102.149V12.6814C102.149 12.5507 102.044 12.444 101.914 12.444H98.6724C98.5422 12.444 98.4346 12.5507 98.4346 12.6814V16.3285H96.8776C96.7474 16.3285 96.6423 16.4352 96.6423 16.5662V19.3522C96.6423 19.4829 96.7474 19.5898 96.8776 19.5898H98.4346V26.7998C98.4346 29.7118 99.8839 31.1891 102.745 31.1891C103.907 31.1891 104.87 30.9487 105.779 30.4329C105.854 30.3929 105.899 30.3127 105.899 30.2276V27.5735C105.899 27.4934 105.857 27.4157 105.786 27.3732C105.716 27.3281 105.629 27.3256 105.556 27.3632C104.933 27.6761 104.33 27.8214 103.654 27.8214C102.615 27.8214 102.149 27.3481 102.149 26.2915V19.5911H105.716C105.847 19.5911 105.952 19.4844 105.952 19.3535V16.5677C105.957 16.4367 105.852 16.33 105.719 16.33L105.716 16.3285ZM118.142 16.3428V15.8949C118.142 14.5771 118.648 13.9894 119.779 13.9894C120.455 13.9894 120.998 14.1236 121.607 14.3264C121.682 14.35 121.759 14.3382 121.82 14.2934C121.882 14.2486 121.917 14.1767 121.917 14.1006V11.3688C121.917 11.2644 121.852 11.172 121.749 11.1412C121.109 10.9502 120.288 10.7541 119.056 10.7541C116.065 10.7541 114.48 12.4403 114.48 15.6285V16.3145H112.923C112.793 16.3145 112.685 16.4212 112.685 16.5519V19.3522C112.685 19.4829 112.793 19.5898 112.923 19.5898H114.48V30.7083C114.48 30.8411 114.588 30.9462 114.718 30.9462H117.957C118.09 30.9462 118.195 30.8411 118.195 30.7083V19.5906H121.221L125.857 30.7083C125.332 31.8752 124.813 32.108 124.107 32.108C123.537 32.108 122.933 31.9378 122.32 31.5997C122.263 31.5697 122.193 31.5647 122.132 31.5822C122.07 31.6047 122.017 31.6498 121.992 31.7099L120.893 34.1211C120.841 34.2363 120.886 34.369 120.996 34.4291C122.142 35.0501 123.176 35.3155 124.455 35.3155C126.848 35.3155 128.173 34.1988 129.337 31.1991L134.959 16.6673C134.989 16.5942 134.979 16.5116 134.934 16.4467C134.891 16.3824 134.819 16.3436 134.741 16.3436H131.367C131.264 16.3436 131.174 16.4079 131.142 16.5028L127.685 26.3766L123.9 16.4963C123.865 16.4044 123.777 16.3436 123.679 16.3436H118.142V16.3428ZM110.938 16.3285H107.696C107.566 16.3285 107.459 16.4352 107.459 16.5662V30.7083C107.459 30.8411 107.566 30.9462 107.696 30.9462H110.938C111.068 30.9462 111.176 30.8411 111.176 30.7083V16.5672C111.176 16.4362 111.071 16.3295 110.938 16.3295V16.3285ZM109.336 9.8888C108.052 9.8888 107.011 10.9284 107.011 12.2127C107.011 13.4977 108.052 14.5385 109.336 14.5385C110.62 14.5385 111.659 13.4977 111.659 12.2127C111.659 10.9287 110.618 9.8888 109.336 9.8888ZM137.727 20.8758C136.446 20.8758 135.447 19.8455 135.447 18.5943C135.447 17.3431 136.458 16.301 137.74 16.301C139.022 16.301 140.02 17.3311 140.02 18.5813C140.02 19.8325 139.009 20.8758 137.727 20.8758ZM137.74 16.5279C136.571 16.5279 135.687 17.4568 135.687 18.5943C135.687 19.7313 136.566 20.6477 137.727 20.6477C138.896 20.6477 139.78 19.7196 139.78 18.5813C139.78 17.4443 138.901 16.5279 137.74 16.5279ZM138.246 18.8159L138.891 19.7193H138.346L137.765 18.8905H137.267V19.7193H136.811V17.3246H137.878C138.436 17.3246 138.801 17.6093 138.801 18.0885C138.804 18.4811 138.576 18.721 138.248 18.8159H138.246ZM137.86 17.7355H137.267V18.4929H137.86C138.155 18.4929 138.333 18.3479 138.333 18.1138C138.333 17.8674 138.155 17.7355 137.86 17.7355Z" fill="#1ED760"/>
</svg>
