<svg width="120" height="33" viewBox="0 0 120 33" fill="none" xmlns="http://www.w3.org/2000/svg">
<path d="M16.6234 30.7869C14.8288 31.1022 13.0025 31.1968 11.1133 31.4486L5.35105 14.5622V32.1733C3.55636 32.3623 1.91907 32.6143 0.21875 32.8663V0.605469H5.0049L11.5541 18.91V0.605469H16.6234V30.7869ZM26.5419 12.4198C28.4942 12.4198 31.4855 12.3252 33.2802 12.3252V17.3659C31.0445 17.3659 28.4312 17.3659 26.5419 17.4604V24.9587C29.5018 24.7697 32.4616 24.5174 35.4527 24.4229V29.2743L21.5039 30.3773V0.605469H35.4527V5.64624H26.5419V12.4198ZM54.1874 5.64635H48.9606V28.8338C47.2603 28.8338 45.56 28.8338 43.9229 28.8966V5.64635H38.6961V0.605469H54.1877L54.1874 5.64635ZM62.374 12.0733H69.2698V17.114H62.374V28.5503H57.4302V0.605469H71.5053V5.64624H62.374V12.0733ZM79.6919 24.1395C82.5573 24.2023 85.4539 24.4232 88.2564 24.5805V29.5583C83.7538 29.2746 79.2511 28.9914 74.6541 28.8966V0.605469H79.6919V24.1395ZM92.5071 29.9049C94.1129 29.9996 95.8132 30.0941 97.4505 30.2828V0.605469H92.5071V29.9049ZM119.523 0.605469L113.131 15.9483L119.523 32.8663C117.634 32.6143 115.744 32.2677 113.855 31.9526L110.234 22.6274L106.551 31.1968C104.724 30.8814 102.961 30.7869 101.135 30.5349L107.621 15.7591L101.764 0.605469H107.18L110.486 9.08027L114.013 0.605469H119.523V0.605469Z" fill="#D81F26"/>
</svg>
