<svg width="149" height="201" viewBox="0 0 149 201" fill="none" xmlns="http://www.w3.org/2000/svg">
<path d="M0 65.3265C0.340114 47.8835 7.4433 31.2708 19.784 19.0564C32.1247 6.84195 48.7186 0 66.0018 0C83.285 0 99.8789 6.84195 112.22 19.0564C124.56 31.2708 131.663 47.8835 132.004 65.3265C132.004 101.613 102.269 130.803 65.6823 130.803C57.103 130.885 48.5924 129.253 40.6403 126.002C32.6883 122.75 25.4517 117.943 19.3471 111.858C13.2425 105.772 8.39036 98.5284 5.07 90.5426C1.74963 82.5569 0.0265875 73.9871 0 65.3265ZM100.198 65.12C100.323 60.5075 99.5309 55.9165 97.8686 51.6182C96.2063 47.3198 93.7074 43.4014 90.5197 40.0944C87.3319 36.7873 83.5199 34.1587 79.3088 32.3638C75.0977 30.5689 70.5729 29.6441 66.0018 29.6441C61.4307 29.6441 56.906 30.5689 52.695 32.3638C48.4839 34.1587 44.6718 36.7873 41.4841 40.0944C38.2963 43.4014 35.7974 47.3198 34.1351 51.6182C32.4728 55.9165 31.6807 60.5075 31.8057 65.12C31.6807 69.7326 32.4728 74.3236 34.1351 78.6219C35.7974 82.9202 38.2963 86.8386 41.4841 90.1457C44.6718 93.4528 48.4839 96.0814 52.695 97.8763C56.906 99.6712 61.4307 100.596 66.0018 100.596C70.5729 100.596 75.0977 99.6712 79.3088 97.8763C83.5199 96.0814 87.3319 93.4528 90.5197 90.1457C93.7074 86.8386 96.2063 82.9202 97.8686 78.6219C99.5309 74.3236 100.323 69.7326 100.198 65.12ZM28.8399 183.401C26.4366 184.949 24.4167 184.82 22.9338 182.807L10.5337 165.387C9.07635 163.373 10.0224 160.947 13.4228 158.78C34.4573 145.291 59.6553 140.042 84.2612 144.021C108.867 148.001 131.179 160.935 146.986 180.381C149.543 183.53 149.543 186.137 147.676 187.582L130.418 200.177C128.399 201.648 126.43 201.106 124.64 198.886C113.307 184.93 97.3026 175.648 79.6507 172.795C61.9989 169.942 43.9231 173.715 28.8399 183.401Z" fill="#FCFBF9"/>
</svg>
